<svg version="1.1" xmlns="http://www.w3.org/2000/svg" viewBox="0 0 2877.6119791666656 982.8059895833348" width="5755.223958333331" height="1965.6119791666697">
  <!-- svg-source:excalidraw -->
  
  <defs>
    <style class="style-fonts">
      @font-face {
        font-family: "Virgil";
        src: url("https://excalidraw.com/Virgil.woff2");
      }
      @font-face {
        font-family: "Cascadia";
        src: url("https://excalidraw.com/Cascadia.woff2");
      }
    </style>
  </defs>
  <rect x="0" y="0" width="2877.6119791666656" height="982.8059895833348" fill="#ffffff"></rect><g stroke-linecap="round" transform="translate(297.00390625 10) rotate(0 133.8359375 60.568359375)"><path d="M167.5 15.25 M167.5 15.25 C181.12 23.1, 200.07 30.17, 234.17 45.75 M167.5 15.25 C188.25 24.21, 208.15 32.96, 234.17 45.75 M234.17 45.75 C268.9 61.36, 268.21 60.43, 234.17 76.25 M234.17 45.75 C266.43 62.93, 269.34 61.14, 234.17 76.25 M234.17 76.25 C211.35 83.34, 193.62 96.21, 167.5 105.89 M234.17 76.25 C208.24 88.1, 181.32 100.15, 167.5 105.89 M167.5 105.89 C134.64 120.91, 133.04 123.06, 100.5 105.89 M167.5 105.89 C135.24 123.4, 132.11 123.08, 100.5 105.89 M100.5 105.89 C78.38 96.23, 58.15 87.01, 33.5 76.25 M100.5 105.89 C75.9 93.72, 49.94 82.43, 33.5 76.25 M33.5 76.25 C1.14 61.5, 0.89 60.65, 33.5 45.75 M33.5 76.25 C-0.56 60.04, 1.49 62.69, 33.5 45.75 M33.5 45.75 C49.53 41.29, 64.13 32.65, 100.5 15.25 M33.5 45.75 C47.86 39.29, 63.13 31.87, 100.5 15.25 M100.5 15.25 C135.75 1.52, 133.49 -1.99, 167.5 15.25 M100.5 15.25 C135.62 -0.32, 132.35 1.82, 167.5 15.25" stroke="#1e1e1e" stroke-width="1" fill="none"></path></g><g transform="translate(380.34192657470703 45.7841796875) rotate(0 50.57994842529297 25)"><text x="50.57994842529297" y="0" font-family="Virgil, Segoe UI Emoji" font-size="20px" fill="#1e1e1e" text-anchor="middle" style="white-space: pre;" direction="ltr" dominant-baseline="text-before-edge">Video or </text><text x="50.57994842529297" y="25" font-family="Virgil, Segoe UI Emoji" font-size="20px" fill="#1e1e1e" text-anchor="middle" style="white-space: pre;" direction="ltr" dominant-baseline="text-before-edge">audio file?</text></g><g stroke-linecap="round" transform="translate(26.4375 166.53515625) rotate(0 137.66015625 85)"><path d="M172.5 21.5 M172.5 21.5 C186.41 27.83, 202.37 38.39, 240.82 64.5 M172.5 21.5 C188.53 31.94, 204.35 41.65, 240.82 64.5 M240.82 64.5 C274.76 84.6, 274.78 85.25, 240.82 107.5 M240.82 64.5 C276.07 84.64, 274.2 88.23, 240.82 107.5 M240.82 107.5 C216.79 121.41, 189.96 137.33, 172.5 148.5 M240.82 107.5 C214.26 123.41, 188.35 139.75, 172.5 148.5 M172.5 148.5 C136.49 168.22, 138.91 168.7, 103.5 148.5 M172.5 148.5 C136.92 171.36, 136.94 169.83, 103.5 148.5 M103.5 148.5 C75.54 132.22, 50.48 119.35, 34.5 107.5 M103.5 148.5 C88.25 139.2, 73.2 129.88, 34.5 107.5 M34.5 107.5 C1.07 87.23, 1.6 86.64, 34.5 64.5 M34.5 107.5 C-0.83 86.93, -1.99 85.56, 34.5 64.5 M34.5 64.5 C58.58 48.55, 80.95 33.88, 103.5 21.5 M34.5 64.5 C54.4 51.71, 74.63 38.79, 103.5 21.5 M103.5 21.5 C139.6 -1.09, 138.72 1.73, 172.5 21.5 M103.5 21.5 C137.92 -0.98, 139.46 -1.35, 172.5 21.5" stroke="#1e1e1e" stroke-width="1" fill="none"></path></g><g transform="translate(121.00762176513672 214.03515625) rotate(0 43.25995635986328 37.5)"><text x="43.25995635986328" y="0" font-family="Virgil, Segoe UI Emoji" font-size="20px" fill="#1e1e1e" text-anchor="middle" style="white-space: pre;" direction="ltr" dominant-baseline="text-before-edge">Is it a </text><text x="43.25995635986328" y="25" font-family="Virgil, Segoe UI Emoji" font-size="20px" fill="#1e1e1e" text-anchor="middle" style="white-space: pre;" direction="ltr" dominant-baseline="text-before-edge">Youtube </text><text x="43.25995635986328" y="50" font-family="Virgil, Segoe UI Emoji" font-size="20px" fill="#1e1e1e" text-anchor="middle" style="white-space: pre;" direction="ltr" dominant-baseline="text-before-edge">URL?</text></g><g mask="url(#mask-hEiXPJMps2FMXQ0u73MFk)" stroke-linecap="round"><g transform="translate(283.6953125 72.78515625) rotate(0 -58.1437891007634 41.854018787294635)"><path d="M-1.14 -1.06 C-20.67 12.92, -97.58 70.53, -116.75 84.77 M0.47 1 C-18.76 14.52, -95.04 68.65, -114.66 82.75" stroke="#1e1e1e" stroke-width="1" fill="none"></path></g><g transform="translate(283.6953125 72.78515625) rotate(0 -58.1437891007634 41.854018787294635)"><path d="M-99.43 56.06 C-102.87 65.22, -109.23 73.5, -114.8 80.85 M-98.06 58.66 C-102.4 63.95, -106.82 70.47, -113.74 83.29" stroke="#1e1e1e" stroke-width="1" fill="none"></path></g><g transform="translate(283.6953125 72.78515625) rotate(0 -58.1437891007634 41.854018787294635)"><path d="M-87.51 72.77 C-95.08 76.19, -105.46 78.85, -114.8 80.85 M-86.14 75.36 C-93.71 76.44, -101.21 78.63, -113.74 83.29" stroke="#1e1e1e" stroke-width="1" fill="none"></path></g></g><mask id="mask-hEiXPJMps2FMXQ0u73MFk"><rect x="0" y="0" fill="#fff" width="499.2734375" height="257.34765625"></rect><rect x="201.7862777709961" y="102.56640625" fill="#000" width="48.23994445800781" height="25" opacity="1"></rect></mask><g transform="translate(201.7862777709961 102.56640625) rotate(0 23.765245628240507 12.072768787294635)"><text x="24.119972229003906" y="0" font-family="Virgil, Segoe UI Emoji" font-size="20px" fill="#1e1e1e" text-anchor="middle" style="white-space: pre;" direction="ltr" dominant-baseline="text-before-edge">video</text></g><g stroke-linecap="round" transform="translate(19.1328125 450.74609375) rotate(0 141.998046875 110)"><path d="M177.5 27.75 M177.5 27.75 C193.93 40.18, 205.46 52.28, 248.5 83.25 M177.5 27.75 C193.18 39.97, 207.78 51.71, 248.5 83.25 M248.5 83.25 C284.5 111.01, 282.42 112.51, 248.5 138.75 M248.5 83.25 C286.05 112.77, 282.28 111.52, 248.5 138.75 M248.5 138.75 C232.13 147.86, 220.61 160.83, 177.5 192.25 M248.5 138.75 C231.26 151.9, 215.27 164.95, 177.5 192.25 M177.5 192.25 C142.54 220.74, 142.84 220.22, 106.5 192.25 M177.5 192.25 C141.36 218.72, 142.74 220.45, 106.5 192.25 M106.5 192.25 C92.64 181.46, 79.63 170.2, 35.5 138.75 M106.5 192.25 C79.09 171.87, 50.66 150.45, 35.5 138.75 M35.5 138.75 C1.85 110.67, 1.33 112.75, 35.5 83.25 M35.5 138.75 C-0.47 109.4, 1.39 110.22, 35.5 83.25 M35.5 83.25 C54.35 66.28, 74.34 52.67, 106.5 27.75 M35.5 83.25 C53.41 67.47, 72.17 53, 106.5 27.75 M106.5 27.75 C142.19 -0.42, 142.7 -1.97, 177.5 27.75 M106.5 27.75 C140.53 1.33, 140.82 1.81, 177.5 27.75" stroke="#1e1e1e" stroke-width="1" fill="none"></path></g><g transform="translate(111.95187377929688 510.74609375) rotate(0 49.179962158203125 50)"><text x="49.179962158203125" y="0" font-family="Virgil, Segoe UI Emoji" font-size="20px" fill="#1e1e1e" text-anchor="middle" style="white-space: pre;" direction="ltr" dominant-baseline="text-before-edge">Is it a </text><text x="49.179962158203125" y="25" font-family="Virgil, Segoe UI Emoji" font-size="20px" fill="#1e1e1e" text-anchor="middle" style="white-space: pre;" direction="ltr" dominant-baseline="text-before-edge">container </text><text x="49.179962158203125" y="50" font-family="Virgil, Segoe UI Emoji" font-size="20px" fill="#1e1e1e" text-anchor="middle" style="white-space: pre;" direction="ltr" dominant-baseline="text-before-edge">with mp3 </text><text x="49.179962158203125" y="75" font-family="Virgil, Segoe UI Emoji" font-size="20px" fill="#1e1e1e" text-anchor="middle" style="white-space: pre;" direction="ltr" dominant-baseline="text-before-edge">available?</text></g><g mask="url(#mask-jFZFYxG6Qb_1LzDANYWy1)" stroke-linecap="round"><g transform="translate(162.2734375 351.98828125) rotate(0 -0.7626056192489159 44.0282938597025)"><path d="M-0.44 -0.1 C-1 14.97, -2.77 74.4, -3.06 89.25 M1.53 -1.2 C1.33 13.59, -0.05 72, -0.79 87.27" stroke="#1e1e1e" stroke-width="1" fill="none"></path></g><g transform="translate(162.2734375 351.98828125) rotate(0 -0.7626056192489159 44.0282938597025)"><path d="M-10.25 57.31 C-6.94 68.06, -4.27 75.94, -1.92 88.93 M-10.57 59.18 C-8.36 67.81, -4.06 75.15, -0.86 87.27" stroke="#1e1e1e" stroke-width="1" fill="none"></path></g><g transform="translate(162.2734375 351.98828125) rotate(0 -0.7626056192489159 44.0282938597025)"><path d="M10.26 58.01 C6.95 68.46, 2.98 76.11, -1.92 88.93 M9.94 59.89 C6.25 68.28, 4.65 75.42, -0.86 87.27" stroke="#1e1e1e" stroke-width="1" fill="none"></path></g></g><mask id="mask-jFZFYxG6Qb_1LzDANYWy1"><rect x="0" y="0" fill="#fff" width="264.47265625" height="540.98828125"></rect><rect x="145.1138458251953" y="383.98828125" fill="#000" width="32.119964599609375" height="25" opacity="1"></rect></mask><g transform="translate(145.1138458251953 383.98828125) rotate(0 16.39698605555577 12.0282938597025)"><text x="16.059982299804688" y="0" font-family="Virgil, Segoe UI Emoji" font-size="20px" fill="#1e1e1e" text-anchor="middle" style="white-space: pre;" direction="ltr" dominant-baseline="text-before-edge">Yes</text></g><g stroke-linecap="round" transform="translate(689.6575520833333 512.5625) rotate(0 123.859375 54.0234375)"><path d="M27.01 0 M27.01 0 C97.07 1, 165.55 0.96, 220.71 0 M27.01 0 C68.93 0.25, 109.35 0, 220.71 0 M220.71 0 C239.08 -1.7, 247.43 7.59, 247.72 27.01 M220.71 0 C238.93 1.07, 249.6 7.39, 247.72 27.01 M247.72 27.01 C248.24 44.28, 247.44 66.17, 247.72 81.04 M247.72 27.01 C247.75 38.99, 247.89 51.78, 247.72 81.04 M247.72 81.04 C247.53 100.37, 240.01 110.04, 220.71 108.05 M247.72 81.04 C249.14 98.86, 239.82 108.42, 220.71 108.05 M220.71 108.05 C175.48 106.72, 132.85 107.25, 27.01 108.05 M220.71 108.05 C169.12 108.18, 118.71 107.69, 27.01 108.05 M27.01 108.05 C10.07 109.36, 0.47 97.35, 0 81.04 M27.01 108.05 C8.62 108.24, 1.56 97.5, 0 81.04 M0 81.04 C-0.05 61.48, 2.19 47.47, 0 27.01 M0 81.04 C-0.64 68.72, 0.1 55.73, 0 27.01 M0 27.01 C1.39 8, 8.69 -0.72, 27.01 0 M0 27.01 C1.97 9.06, 8.38 1.71, 27.01 0" stroke="#1e1e1e" stroke-width="1" fill="none"></path></g><g transform="translate(711.6970036824544 554.0859375) rotate(0 101.8199234008789 12.5)"><text x="101.8199234008789" y="0" font-family="Virgil, Segoe UI Emoji" font-size="20px" fill="#1e1e1e" text-anchor="middle" style="white-space: pre;" direction="ltr" dominant-baseline="text-before-edge">Extract Audio track</text></g><g mask="url(#mask-Dr6U0Q7nN4U4eKFJFscaJ)" stroke-linecap="round"><g transform="translate(311.22490128633194 252.63848902129706) rotate(0 257.63156716736654 124.6504908662096)"><path d="M-0.31 -1.11 C75.6 4.52, 368.84 -8.3, 454.41 33.43 C539.98 75.16, 503.09 213.41, 513.12 249.28 M1.73 0.92 C77.66 6.27, 368.36 -9.69, 454 31.89 C539.64 73.47, 505.38 214.18, 515.57 250.42" stroke="#1e1e1e" stroke-width="1" fill="none"></path></g><g transform="translate(311.22490128633194 252.63848902129706) rotate(0 257.63156716736654 124.6504908662096)"><path d="M502.64 224.26 C508.63 227.13, 508.57 235.5, 513.97 250.63 M503.99 222.38 C507.26 231.52, 510.91 238.6, 516.31 250.82" stroke="#1e1e1e" stroke-width="1" fill="none"></path></g><g transform="translate(311.22490128633194 252.63848902129706) rotate(0 257.63156716736654 124.6504908662096)"><path d="M523.15 223.66 C524.75 226.61, 520.29 235.11, 513.97 250.63 M524.51 221.78 C521.73 231.25, 519.34 238.5, 516.31 250.82" stroke="#1e1e1e" stroke-width="1" fill="none"></path></g></g><mask id="mask-Dr6U0Q7nN4U4eKFJFscaJ"><rect x="0" y="0" fill="#fff" width="925.1850727214564" height="602.27734375"></rect><rect x="742.2215881347656" y="272.46484375000006" fill="#000" width="44.75994873046875" height="25" opacity="1"></rect></mask><g transform="translate(742.2215881347656 272.46484375) rotate(0 -173.36511968106714 104.82413613750666)"><text x="22.379974365234375" y="0" font-family="Virgil, Segoe UI Emoji" font-size="20px" fill="#1e1e1e" text-anchor="middle" style="white-space: pre;" direction="ltr" dominant-baseline="text-before-edge">Nope</text></g><g stroke-linecap="round" transform="translate(10 796.10546875) rotate(0 121.2734375 58.990234375)"><path d="M29.5 0 M29.5 0 C86.35 -2.03, 141.32 1.21, 213.05 0 M29.5 0 C87.79 0.44, 146.65 1.25, 213.05 0 M213.05 0 C232.44 0.4, 243.65 9.06, 242.55 29.5 M213.05 0 C233.67 -0.15, 241 11.49, 242.55 29.5 M242.55 29.5 C240.74 49.52, 242.02 68.92, 242.55 88.49 M242.55 29.5 C242.66 48.12, 242.19 66.09, 242.55 88.49 M242.55 88.49 C240.66 110.08, 232.02 117.52, 213.05 117.98 M242.55 88.49 C241.76 109.14, 231.04 118.07, 213.05 117.98 M213.05 117.98 C162.31 118.69, 112.26 118.76, 29.5 117.98 M213.05 117.98 C166.29 117.96, 121.12 118.73, 29.5 117.98 M29.5 117.98 C11.56 116.26, 1.08 107.51, 0 88.49 M29.5 117.98 C7.64 115.98, 1.94 106.22, 0 88.49 M0 88.49 C1.41 74.73, -1.25 61.09, 0 29.5 M0 88.49 C0.37 71.42, -0.99 52.46, 0 29.5 M0 29.5 C-1.46 11.74, 11.51 -1.93, 29.5 0 M0 29.5 C-1.92 11.78, 11.91 -0.64, 29.5 0" stroke="#1e1e1e" stroke-width="1" fill="none"></path></g><g transform="translate(32.063507080078125 842.595703125) rotate(0 99.20993041992188 12.5)"><text x="99.20993041992188" y="0" font-family="Virgil, Segoe UI Emoji" font-size="20px" fill="#1e1e1e" text-anchor="middle" style="white-space: pre;" direction="ltr" dominant-baseline="text-before-edge">Download mp3 track</text></g><g stroke-linecap="round" transform="translate(669.0703125 825.96484375) rotate(0 120.763671875 48.365234375)"><path d="M24.18 0 M24.18 0 C77.66 0, 126.21 1.99, 217.34 0 M24.18 0 C76.79 0.04, 130.58 0.6, 217.34 0 M217.34 0 C232.18 0.74, 243.03 6.08, 241.53 24.18 M217.34 0 C232.56 -1.68, 243.72 9.99, 241.53 24.18 M241.53 24.18 C242.93 33.47, 239.83 45.62, 241.53 72.55 M241.53 24.18 C241.7 37.97, 241.3 51.41, 241.53 72.55 M241.53 72.55 C241.91 88.31, 234.38 98.55, 217.34 96.73 M241.53 72.55 C240.28 89.92, 232.06 98.81, 217.34 96.73 M217.34 96.73 C143.47 96.84, 71.13 98.26, 24.18 96.73 M217.34 96.73 C142.23 94.75, 65.58 95.37, 24.18 96.73 M24.18 96.73 C9.44 97.35, -1.76 90.34, 0 72.55 M24.18 96.73 C6.98 96.89, 0.75 90.16, 0 72.55 M0 72.55 C1.23 60.62, 0.26 47.19, 0 24.18 M0 72.55 C-0.89 58.54, -0.93 44, 0 24.18 M0 24.18 C1.15 6.41, 9.12 0.89, 24.18 0 M0 24.18 C-1.45 6.12, 9.84 0.76, 24.18 0" stroke="#1e1e1e" stroke-width="1" fill="none"></path></g><g transform="translate(679.6240768432617 861.830078125) rotate(0 110.20990753173828 12.5)"><text x="110.20990753173828" y="0" font-family="Virgil, Segoe UI Emoji" font-size="20px" fill="#1e1e1e" text-anchor="middle" style="white-space: pre;" direction="ltr" dominant-baseline="text-before-edge">Convert to 16khz mono</text></g><g stroke-linecap="round"><g transform="translate(807.7443933008453 634.90625) rotate(0 0.17960094851980557 91.72114114799535)"><path d="M0.71 0.61 C0.79 30.97, 0.75 151.6, 0.39 181.93 M-0.38 -0.12 C-0.35 30.48, -0.22 153.43, 0.02 183.57" stroke="#1e1e1e" stroke-width="1" fill="none"></path></g><g transform="translate(807.7443933008453 634.90625) rotate(0 0.17960094851980557 91.72114114799535)"><path d="M-9.34 157.26 C-7.08 162.33, -2.96 170.17, -0.25 183.21 M-9.52 154.95 C-6.37 166.23, -1.96 175.78, 0.61 183.68" stroke="#1e1e1e" stroke-width="1" fill="none"></path></g><g transform="translate(807.7443933008453 634.90625) rotate(0 0.17960094851980557 91.72114114799535)"><path d="M11.18 157.18 C7.46 162.39, 5.6 170.26, -0.25 183.21 M11 154.86 C6.58 165.99, 3.41 175.58, 0.61 183.68" stroke="#1e1e1e" stroke-width="1" fill="none"></path></g></g><mask></mask><g stroke-linecap="round"><g transform="translate(265.828125 883.2374029486577) rotate(0 195.8982340176916 -2.5779589215541137)"><path d="M-0.22 -0.73 C65.57 -1.61, 328.1 -4.08, 393.59 -4.97 M-1.79 1.5 C63.93 0.26, 326.44 -5.59, 392.59 -6.65" stroke="#1e1e1e" stroke-width="1" fill="none"></path></g><g transform="translate(265.828125 883.2374029486577) rotate(0 195.8982340176916 -2.5779589215541137)"><path d="M363.38 3.99 C371.73 0.36, 375.7 -1.91, 391.78 -5.35 M363.63 3.56 C372.13 1.97, 379.13 -1.13, 392.52 -7.08" stroke="#1e1e1e" stroke-width="1" fill="none"></path></g><g transform="translate(265.828125 883.2374029486577) rotate(0 195.8982340176916 -2.5779589215541137)"><path d="M362.98 -16.52 C371.46 -15.93, 375.51 -13.97, 391.78 -5.35 M363.23 -16.96 C371.68 -13.01, 378.79 -10.57, 392.52 -7.08" stroke="#1e1e1e" stroke-width="1" fill="none"></path></g></g><mask></mask><g mask="url(#mask-AUvSGnUDv-ssAeeonegvD)" stroke-linecap="round"><g transform="translate(137.79696138381377 673.9626322415188) rotate(0 -0.5009515259226589 56.96531970817614)"><path d="M-0.71 0.62 C-1.17 19.8, -2.25 95.16, -2.12 114.03 M1.13 -0.1 C0.96 18.78, 0.21 92.81, 0.01 112.03" stroke="#1e1e1e" stroke-width="1" fill="none"></path></g><g transform="translate(137.79696138381377 673.9626322415188) rotate(0 -0.5009515259226589 56.96531970817614)"><path d="M-8.93 81.86 C-6.3 95.63, -3.05 103.55, 0.91 111.78 M-10.01 83.43 C-7.97 90.8, -4.75 99.62, 0.41 112.73" stroke="#1e1e1e" stroke-width="1" fill="none"></path></g><g transform="translate(137.79696138381377 673.9626322415188) rotate(0 -0.5009515259226589 56.96531970817614)"><path d="M11.59 82.07 C6.94 95.65, 2.91 103.49, 0.91 111.78 M10.51 83.64 C7.06 90.81, 4.77 99.58, 0.41 112.73" stroke="#1e1e1e" stroke-width="1" fill="none"></path></g></g><mask id="mask-AUvSGnUDv-ssAeeonegvD"><rect x="0" y="0" fill="#fff" width="238.78721223409593" height="887.7734375"></rect><rect x="121.74185365886802" y="718.3680348707594" fill="#000" width="31.119964599609375" height="25" opacity="1"></rect></mask><g transform="translate(121.74185365886797 718.3680348707594) rotate(0 15.55415619902314 12.559917078935541)"><text x="15.559982299804688" y="0" font-family="Virgil, Segoe UI Emoji" font-size="20px" fill="#1e1e1e" text-anchor="middle" style="white-space: pre;" direction="ltr" dominant-baseline="text-before-edge">Yep</text></g><g stroke-linecap="round" transform="translate(388.85546875 513.10546875) rotate(0 103.791015625 53.916015625)"><path d="M26.96 0 M26.96 0 C76.18 2.12, 122.74 0.93, 180.62 0 M26.96 0 C75.46 -1.92, 122.27 -1.26, 180.62 0 M180.62 0 C199.39 0.33, 206.5 9.23, 207.58 26.96 M180.62 0 C199.75 0.06, 206.3 8.79, 207.58 26.96 M207.58 26.96 C207.05 46.45, 205.27 63.62, 207.58 80.87 M207.58 26.96 C207.36 39.4, 207.69 50.12, 207.58 80.87 M207.58 80.87 C206.5 98.53, 198.75 106.82, 180.62 107.83 M207.58 80.87 C208.16 99.32, 196.81 109.07, 180.62 107.83 M180.62 107.83 C131.54 108.27, 80.59 109.17, 26.96 107.83 M180.62 107.83 C134.55 106.48, 87.83 107.81, 26.96 107.83 M26.96 107.83 C9.29 107.64, -1.46 99.48, 0 80.87 M26.96 107.83 C8.34 107.83, -0.02 96.76, 0 80.87 M0 80.87 C0.64 64, -1.29 42.96, 0 26.96 M0 80.87 C-1.06 60.73, 0.63 38.7, 0 26.96 M0 26.96 C-1.93 7.97, 9.5 0.38, 26.96 0 M0 26.96 C0.18 7, 9.41 -1.99, 26.96 0" stroke="#1e1e1e" stroke-width="1" fill="none"></path></g><g transform="translate(418.89654541015625 554.521484375) rotate(0 73.74993896484375 12.5)"><text x="73.74993896484375" y="0" font-family="Virgil, Segoe UI Emoji" font-size="20px" fill="#1e1e1e" text-anchor="middle" style="white-space: pre;" direction="ltr" dominant-baseline="text-before-edge">Download video</text></g><g mask="url(#mask-DKwl_8g3y8F0b7G5pY76t)" stroke-linecap="round"><g transform="translate(306.80609827379476 561.068211274814) rotate(0 38.65306764299629 -2.0124780746397732)"><path d="M-0.34 0 C12.75 -0.73, 64.56 -3.42, 77.64 -4.02 M1.69 -1.05 C14.69 -1.7, 64.03 -2.79, 76.69 -3.06" stroke="#1e1e1e" stroke-width="1" fill="none"></path></g><g transform="translate(306.80609827379476 561.068211274814) rotate(0 38.65306764299629 -2.0124780746397732)"><path d="M48.73 7.8 C53.23 6.24, 60.29 4.08, 77.03 -1.56 M49.29 7.27 C54.2 5.9, 62.06 2.35, 75.72 -3.57" stroke="#1e1e1e" stroke-width="1" fill="none"></path></g><g transform="translate(306.80609827379476 561.068211274814) rotate(0 38.65306764299629 -2.0124780746397732)"><path d="M48.28 -12.71 C52.95 -9.61, 60.11 -7.12, 77.03 -1.56 M48.83 -13.25 C53.72 -10.09, 61.69 -9.12, 75.72 -3.57" stroke="#1e1e1e" stroke-width="1" fill="none"></path></g></g><mask id="mask-DKwl_8g3y8F0b7G5pY76t"><rect x="0" y="0" fill="#fff" width="484.4609375" height="664.0052694155681"></rect><rect x="333.65352978875285" y="547.0996822044368" fill="#000" width="23.959976196289062" height="25" opacity="1"></rect></mask><g transform="translate(333.65352978875285 547.0996822044369) rotate(0 11.805636128038202 11.956050995737257)"><text x="11.979988098144531" y="0" font-family="Virgil, Segoe UI Emoji" font-size="20px" fill="#1e1e1e" text-anchor="middle" style="white-space: pre;" direction="ltr" dominant-baseline="text-before-edge">No</text></g><g stroke-linecap="round"><g transform="translate(604.296875 564.8305936072636) rotate(0 36.89517377643068 1.3137416672194036)"><path d="M-0.02 1.19 C12.53 1.69, 62.69 2.27, 75.28 2.35 M-1.49 0.77 C10.98 0.94, 61.96 0.03, 74.75 0.35" stroke="#1e1e1e" stroke-width="1" fill="none"></path></g><g transform="translate(604.296875 564.8305936072636) rotate(0 36.89517377643068 1.3137416672194036)"><path d="M48.54 11.93 C55.43 9.27, 62.68 6.15, 74.44 -0.15 M46.69 9.66 C51.87 8.78, 58.23 5.67, 75.58 0.33" stroke="#1e1e1e" stroke-width="1" fill="none"></path></g><g transform="translate(604.296875 564.8305936072636) rotate(0 36.89517377643068 1.3137416672194036)"><path d="M48.56 -8.59 C55.34 -5.13, 62.58 -2.12, 74.44 -0.15 M46.72 -10.86 C51.7 -7.47, 58.05 -6.32, 75.58 0.33" stroke="#1e1e1e" stroke-width="1" fill="none"></path></g></g><mask></mask><g stroke-linecap="round" transform="translate(443.01953125 660.40625) rotate(0 116.904296875 54.865234375)"><path d="M27.43 0 M27.43 0 C65.79 1.56, 107.47 1.23, 206.38 0 M27.43 0 C66.72 -0.33, 105.89 0.59, 206.38 0 M206.38 0 C224.22 -1.09, 235.34 10.9, 233.81 27.43 M206.38 0 C225.55 2.04, 234.18 10.4, 233.81 27.43 M233.81 27.43 C232.45 48.11, 233.46 68.18, 233.81 82.3 M233.81 27.43 C234.43 42.1, 233.21 57.13, 233.81 82.3 M233.81 82.3 C233.19 100.2, 223.16 110.73, 206.38 109.73 M233.81 82.3 C233.55 102.67, 226.27 110.53, 206.38 109.73 M206.38 109.73 C161.21 108.88, 115.92 111.46, 27.43 109.73 M206.38 109.73 C157.72 111.64, 109.21 110.69, 27.43 109.73 M27.43 109.73 C7.92 107.89, -0.48 101.49, 0 82.3 M27.43 109.73 C10.52 112.02, 1.15 99.16, 0 82.3 M0 82.3 C1.77 62.04, 0.27 40.62, 0 27.43 M0 82.3 C-0.19 61.86, -0.35 39.63, 0 27.43 M0 27.43 C1.75 10.87, 7.53 1.03, 27.43 0 M0 27.43 C-0.87 11.06, 9.58 2.04, 27.43 0" stroke="#1971c2" stroke-width="1" fill="none"></path></g><g transform="translate(471.9039001464844 690.271484375) rotate(0 88.01992797851562 25)"><text x="88.01992797851562" y="0" font-family="Virgil, Segoe UI Emoji" font-size="20px" fill="#1971c2" text-anchor="middle" style="white-space: pre;" direction="ltr" dominant-baseline="text-before-edge">Background noise </text><text x="88.01992797851562" y="25" font-family="Virgil, Segoe UI Emoji" font-size="20px" fill="#1971c2" text-anchor="middle" style="white-space: pre;" direction="ltr" dominant-baseline="text-before-edge">removal</text></g><g stroke-linecap="round"><g transform="translate(218.4921875 783.0071248228699) rotate(0 108.6359468899667 -35.41883972312053)"><path d="M-0.38 0.72 C4.63 -10.15, -5.96 -53.97, 30.37 -65.54 C66.71 -77.12, 186.29 -68.34, 217.65 -68.73" stroke="#1971c2" stroke-width="1.5" fill="none" stroke-dasharray="8 9"></path></g><g transform="translate(218.4921875 783.0071248228699) rotate(0 108.6359468899667 -35.41883972312053)"><path d="M190.37 -57.68 C197.59 -62.17, 208.19 -63.82, 219.32 -67.65" stroke="#1971c2" stroke-width="1.5" fill="none"></path></g><g transform="translate(218.4921875 783.0071248228699) rotate(0 108.6359468899667 -35.41883972312053)"><path d="M190.95 -78.2 C197.91 -75.94, 208.33 -70.85, 219.32 -67.65" stroke="#1971c2" stroke-width="1.5" fill="none"></path></g></g><mask></mask><g stroke-linecap="round"><g transform="translate(683.0616223523982 621.4738912535963) rotate(0 -18.530397157239747 14.88509269365386)"><path d="M1.08 0.44 C-5.28 5.43, -31.77 24.27, -38.14 29.33" stroke="#1971c2" stroke-width="1.5" fill="none" stroke-dasharray="8 9"></path></g><g transform="translate(683.0616223523982 621.4738912535963) rotate(0 -18.530397157239747 14.88509269365386)"><path d="M-24.34 7.74 C-30.06 15.53, -31.54 21.19, -38.06 29" stroke="#1971c2" stroke-width="1.5" fill="none"></path></g><g transform="translate(683.0616223523982 621.4738912535963) rotate(0 -18.530397157239747 14.88509269365386)"><path d="M-14.58 20.81 C-23.19 24.72, -27.64 26.42, -38.06 29" stroke="#1971c2" stroke-width="1.5" fill="none"></path></g></g><mask></mask><g stroke-linecap="round"><g transform="translate(623.6773600302377 778.4453125) rotate(0 38.67896681897167 18.747393993288256)"><path d="M0.08 0.52 C12.89 6.68, 64.53 30.85, 77.28 36.97" stroke="#1971c2" stroke-width="1.5" fill="none" stroke-dasharray="8 9"></path></g><g transform="translate(623.6773600302377 778.4453125) rotate(0 38.67896681897167 18.747393993288256)"><path d="M48.28 34.44 C58.44 34.14, 68.86 36.96, 77.15 36.64" stroke="#1971c2" stroke-width="1.5" fill="none"></path></g><g transform="translate(623.6773600302377 778.4453125) rotate(0 38.67896681897167 18.747393993288256)"><path d="M57.06 15.89 C64.31 21.76, 71.8 30.74, 77.15 36.64" stroke="#1971c2" stroke-width="1.5" fill="none"></path></g></g><mask></mask><g stroke-linecap="round" transform="translate(1582.3059895833328 77.98958333333371) rotate(0 157.4375000000001 61.400390625)"><path d="M30.7 0 M30.7 0 C113.91 -0.25, 198.96 -0.49, 284.17 0 M30.7 0 C86.6 -1.88, 141.81 -1.67, 284.17 0 M284.17 0 C303.69 -0.28, 313.77 11.7, 314.88 30.7 M284.17 0 C305.33 1.31, 316.62 10.33, 314.88 30.7 M314.88 30.7 C313.89 44.6, 315.19 61.51, 314.88 92.1 M314.88 30.7 C315.72 43.8, 314.55 54.76, 314.88 92.1 M314.88 92.1 C315.83 114.28, 305.87 124.05, 284.17 122.8 M314.88 92.1 C315.87 112.01, 305.76 122.59, 284.17 122.8 M284.17 122.8 C233.16 121.61, 179.89 122.05, 30.7 122.8 M284.17 122.8 C203.11 124.81, 124.16 124.38, 30.7 122.8 M30.7 122.8 C9.23 120.86, 1.22 110.79, 0 92.1 M30.7 122.8 C11.45 124.81, -0.86 112.54, 0 92.1 M0 92.1 C-0.32 73.27, 1.93 59.11, 0 30.7 M0 92.1 C0.08 75.12, -1.34 60.39, 0 30.7 M0 30.7 C-1.3 10.35, 12.03 -1.48, 30.7 0 M0 30.7 C0.17 10.35, 12.53 -1.87, 30.7 0" stroke="#1e1e1e" stroke-width="1" fill="none"></path></g><g transform="translate(1599.7236226399734 114.38997395833371) rotate(0 140.0198669433595 25)"><text x="140.01986694335938" y="0" font-family="Virgil, Segoe UI Emoji" font-size="20px" fill="#1e1e1e" text-anchor="middle" style="white-space: pre;" direction="ltr" dominant-baseline="text-before-edge">Send to Schreifmaschinn.lu's </text><text x="140.01986694335938" y="25" font-family="Virgil, Segoe UI Emoji" font-size="20px" fill="#1e1e1e" text-anchor="middle" style="white-space: pre;" direction="ltr" dominant-baseline="text-before-edge">Meta XLSR model</text></g><g stroke-linecap="round" transform="translate(1142.553385416666 470.0859375000001) rotate(0 154.841796875 59.861328125)"><path d="M29.93 0 M29.93 0 C111.45 1.88, 194.06 1.63, 279.75 0 M29.93 0 C122.64 -0.87, 216.26 -0.31, 279.75 0 M279.75 0 C299.88 -1.28, 310.93 11.42, 309.68 29.93 M279.75 0 C298.44 1.43, 307.95 7.84, 309.68 29.93 M309.68 29.93 C307.56 44.68, 310.41 57.63, 309.68 89.79 M309.68 29.93 C308.58 41.15, 309.09 54.32, 309.68 89.79 M309.68 89.79 C308.51 109.62, 299.61 118.05, 279.75 119.72 M309.68 89.79 C309.73 110.98, 301.18 120.63, 279.75 119.72 M279.75 119.72 C184.49 122.5, 91.27 121.53, 29.93 119.72 M279.75 119.72 C227.58 119.83, 177.25 120.73, 29.93 119.72 M29.93 119.72 C11.45 120.3, -1.07 109.08, 0 89.79 M29.93 119.72 C9.99 119.73, 1.77 109.46, 0 89.79 M0 89.79 C-0.08 77.96, -1.08 64.16, 0 29.93 M0 89.79 C-0.24 73.45, 0.19 57.04, 0 29.93 M0 29.93 C0.3 11.49, 8.05 0.48, 29.93 0 M0 29.93 C1.66 9.92, 10.16 1.71, 29.93 0" stroke="#1971c2" stroke-width="1" fill="none"></path></g><g transform="translate(1154.5953013102207 504.9472656250001) rotate(0 142.7998809814453 25)"><text x="142.7998809814453" y="0" font-family="Virgil, Segoe UI Emoji" font-size="20px" fill="#1971c2" text-anchor="middle" style="white-space: pre;" direction="ltr" dominant-baseline="text-before-edge">Use whisper X + whisper to </text><text x="142.7998809814453" y="25" font-family="Virgil, Segoe UI Emoji" font-size="20px" fill="#1971c2" text-anchor="middle" style="white-space: pre;" direction="ltr" dominant-baseline="text-before-edge">get a better transcript in lb</text></g><g stroke-linecap="round"><g transform="translate(921.9934895833333 878.1341145833335) rotate(0 106.11247758048398 -165.64901713436666)"><path d="M-0.45 -1.19 C20.73 -51.81, 92.47 -251.22, 127.99 -303.69 C163.51 -356.16, 198.56 -313.9, 212.67 -316.02" stroke="#1971c2" stroke-width="1.5" fill="none" stroke-dasharray="8 9"></path></g><g transform="translate(921.9934895833333 878.1341145833335) rotate(0 106.11247758048398 -165.64901713436666)"><path d="M180.69 -315.39 C193.06 -315.4, 204.8 -315.47, 211.55 -317.72" stroke="#1971c2" stroke-width="1.5" fill="none"></path></g><g transform="translate(921.9934895833333 878.1341145833335) rotate(0 106.11247758048398 -165.64901713436666)"><path d="M187.55 -334.73 C197.34 -327.47, 206.49 -320.26, 211.55 -317.72" stroke="#1971c2" stroke-width="1.5" fill="none"></path></g></g><mask></mask><g stroke-linecap="round"><g transform="translate(917.2018229166665 852.3294270833335) rotate(0 322.43227382546036 -371.7274708299699)"><path d="M0.48 0.13 C35.3 -110.01, 100.32 -536.12, 207.84 -659.99 C315.36 -783.86, 572.53 -729.24, 645.59 -743.1 M-0.73 -0.85 C34.1 -111.38, 99.65 -538.14, 207.28 -661.61 C314.92 -785.07, 572.41 -728.28, 645.09 -741.66" stroke="#1e1e1e" stroke-width="1" fill="none"></path></g><g transform="translate(917.2018229166665 852.3294270833335) rotate(0 322.43227382546036 -371.7274708299699)"><path d="M617.09 -730.2 C624.27 -732.84, 628.88 -733.94, 645.47 -743.08 M616.53 -732.38 C627.3 -736.03, 637.95 -739.1, 644.22 -741.31" stroke="#1e1e1e" stroke-width="1" fill="none"></path></g><g transform="translate(917.2018229166665 852.3294270833335) rotate(0 322.43227382546036 -371.7274708299699)"><path d="M617.12 -750.72 C624.43 -749.11, 629.03 -745.97, 645.47 -743.08 M616.56 -752.9 C627.37 -749.01, 638 -744.53, 644.22 -741.31" stroke="#1e1e1e" stroke-width="1" fill="none"></path></g></g><mask></mask><g stroke-linecap="round" transform="translate(1596.2942708333326 304.7630208333337) rotate(0 141 44.5)"><path d="M22.25 0 M22.25 0 C93.16 -0.31, 161.93 -1.12, 259.75 0 M22.25 0 C97.06 1.34, 171.93 0.91, 259.75 0 M259.75 0 C275.69 -1.95, 282.24 7.41, 282 22.25 M259.75 0 C273.47 1.39, 284.24 9.49, 282 22.25 M282 22.25 C281.73 33.77, 281.34 48.14, 282 66.75 M282 22.25 C282.3 38.57, 281.86 53.85, 282 66.75 M282 66.75 C280.56 80.12, 276.1 88.72, 259.75 89 M282 66.75 C281.04 81.48, 274.02 87.85, 259.75 89 M259.75 89 C200.35 86.65, 139.44 87.17, 22.25 89 M259.75 89 C171.47 89.49, 84.29 89.65, 22.25 89 M22.25 89 C9.41 90.77, 1.19 82.03, 0 66.75 M22.25 89 C7.16 87.45, -0.63 81.45, 0 66.75 M0 66.75 C-0.19 51.7, -0.1 38.33, 0 22.25 M0 66.75 C1.12 53.7, 1.06 41.58, 0 22.25 M0 22.25 C-0.89 8.92, 5.76 1.37, 22.25 0 M0 22.25 C-1.45 8.15, 9.47 -1.92, 22.25 0" stroke="#1e1e1e" stroke-width="1" fill="none"></path></g><g transform="translate(1620.6043599446607 324.2630208333337) rotate(0 116.68991088867188 25)"><text x="116.68991088867188" y="0" font-family="Virgil, Segoe UI Emoji" font-size="20px" fill="#1e1e1e" text-anchor="middle" style="white-space: pre;" direction="ltr" dominant-baseline="text-before-edge">lb "dirty" transcript w/ </text><text x="116.68991088867188" y="25" font-family="Virgil, Segoe UI Emoji" font-size="20px" fill="#1e1e1e" text-anchor="middle" style="white-space: pre;" direction="ltr" dominant-baseline="text-before-edge">timecode per words</text></g><g stroke-linecap="round"><g transform="translate(1741.2997909059 212.9817708333337) rotate(0 0.4975543639072839 43.2296858096542)"><path d="M0.99 -0.12 C0.96 14.38, 1.2 73.3, 1 87.69 M0.05 -1.23 C-0.21 12.83, -0.09 71.02, 0.28 85.72" stroke="#1e1e1e" stroke-width="1" fill="none"></path></g><g transform="translate(1741.2997909059 212.9817708333337) rotate(0 0.4975543639072839 43.2296858096542)"><path d="M-10.51 58.36 C-5.45 67.46, -3.64 78.45, -0.61 86.95 M-9.7 58.2 C-7.39 67.52, -3.2 77, 0.24 86.43" stroke="#1e1e1e" stroke-width="1" fill="none"></path></g><g transform="translate(1741.2997909059 212.9817708333337) rotate(0 0.4975543639072839 43.2296858096542)"><path d="M10.01 58.13 C6.87 67.49, 0.49 78.57, -0.61 86.95 M10.82 57.96 C5.99 67.25, 3.03 76.81, 0.24 86.43" stroke="#1e1e1e" stroke-width="1" fill="none"></path></g></g><mask></mask><g stroke-linecap="round" transform="translate(1582.7591145833328 713.7161458333339) rotate(0 153.8613281250001 48.21484375)"><path d="M24.11 0 M24.11 0 C90.03 0.77, 155.02 0.88, 283.62 0 M24.11 0 C104.28 2.45, 182.98 2.39, 283.62 0 M283.62 0 C298.51 -0.18, 307.45 8.98, 307.72 24.11 M283.62 0 C298.9 1.62, 306.51 5.76, 307.72 24.11 M307.72 24.11 C309.19 37.91, 306.19 50.82, 307.72 72.32 M307.72 24.11 C307.98 43.37, 308.27 61.67, 307.72 72.32 M307.72 72.32 C306.58 88.57, 301.48 97.91, 283.62 96.43 M307.72 72.32 C307.44 88.32, 298.8 95.15, 283.62 96.43 M283.62 96.43 C227.36 99.25, 175.11 96.27, 24.11 96.43 M283.62 96.43 C182.28 97.13, 80.92 96.45, 24.11 96.43 M24.11 96.43 C7.39 94.76, 0.61 88.21, 0 72.32 M24.11 96.43 C9.31 95.21, 0.4 88.08, 0 72.32 M0 72.32 C1.48 53.65, 2.06 40.36, 0 24.11 M0 72.32 C1.31 61.28, -0.6 52.46, 0 24.11 M0 24.11 C0.23 8.56, 7.94 0.6, 24.11 0 M0 24.11 C1.77 9.01, 9.76 0.12, 24.11 0" stroke="#1e1e1e" stroke-width="1" fill="none"></path></g><g transform="translate(1612.9305394490555 749.4309895833339) rotate(0 123.68990325927746 12.5)"><text x="123.68990325927734" y="0" font-family="Virgil, Segoe UI Emoji" font-size="20px" fill="#1e1e1e" text-anchor="middle" style="white-space: pre;" direction="ltr" dominant-baseline="text-before-edge">Send text to GPT model</text></g><g stroke-linecap="round"><g transform="translate(1739.0880904673545 404.4583333333337) rotate(0 1.3332300350264177 39.939816995901026)"><path d="M0.73 0.34 C0.95 13.65, 0.72 67.39, 0.66 80.4 M-0.34 -0.53 C0.32 12.41, 2.5 65.51, 3.01 78.81" stroke="#1e1e1e" stroke-width="1" fill="none"></path></g><g transform="translate(1739.0880904673545 404.4583333333337) rotate(0 1.3332300350264177 39.939816995901026)"><path d="M-7.8 49.91 C-3.77 56.16, -4.24 65.77, 4.07 77.18 M-8.71 50.79 C-5.01 58.87, -2.26 65.53, 3.65 79.22" stroke="#1e1e1e" stroke-width="1" fill="none"></path></g><g transform="translate(1739.0880904673545 404.4583333333337) rotate(0 1.3332300350264177 39.939816995901026)"><path d="M12.7 49.08 C11.69 55.67, 6.17 65.47, 4.07 77.18 M11.79 49.97 C10.15 58.35, 7.55 65.23, 3.65 79.22" stroke="#1e1e1e" stroke-width="1" fill="none"></path></g></g><mask></mask><g stroke-linecap="round" transform="translate(1586.9934895833328 886.8723958333348) rotate(0 156.5195312500001 42.966796875)"><path d="M21.48 0 M21.48 0 C87.13 1.43, 154.95 0.75, 291.56 0 M21.48 0 C125.01 0.79, 227.52 0.91, 291.56 0 M291.56 0 C306.18 1.24, 314.28 6.62, 313.04 21.48 M291.56 0 C306.88 -1.45, 313.74 8.1, 313.04 21.48 M313.04 21.48 C314.4 34.44, 314.47 46.52, 313.04 64.45 M313.04 21.48 C313.09 38.65, 312.52 56.06, 313.04 64.45 M313.04 64.45 C312.05 77.7, 305.28 87.74, 291.56 85.93 M313.04 64.45 C314.77 78.63, 308.03 85.26, 291.56 85.93 M291.56 85.93 C230.19 82.71, 168.63 83.32, 21.48 85.93 M291.56 85.93 C221.95 87.86, 154.16 87.84, 21.48 85.93 M21.48 85.93 C6.73 84.91, -0.73 78.75, 0 64.45 M21.48 85.93 C8.98 84.73, -2.23 79.78, 0 64.45 M0 64.45 C-2.08 47.32, 1.11 30.49, 0 21.48 M0 64.45 C-0.68 49.17, 0.94 32.59, 0 21.48 M0 21.48 C-0.91 8.64, 6.91 -1.58, 21.48 0 M0 21.48 C0.48 7.39, 6.64 0.67, 21.48 0" stroke="#1e1e1e" stroke-width="1" fill="none"></path></g><g transform="translate(1659.2630894978836 917.3391927083348) rotate(0 84.24993133544933 12.5)"><text x="84.24993133544922" y="0" font-family="Virgil, Segoe UI Emoji" font-size="20px" fill="#1e1e1e" text-anchor="middle" style="white-space: pre;" direction="ltr" dominant-baseline="text-before-edge">save EN .srt file</text></g><g stroke-linecap="round"><g transform="translate(1732.0598958333326 818.1028645833342) rotate(0 0.7786584720761311 32.37289473538294)"><path d="M1.1 0.72 C1.19 11.44, 1.49 52.89, 1.24 63.29 M0.22 0.05 C0.19 11.04, 1.14 54, 0.85 64.7" stroke="#1e1e1e" stroke-width="1" fill="none"></path></g><g transform="translate(1732.0598958333326 818.1028645833342) rotate(0 0.7786584720761311 32.37289473538294)"><path d="M-8.24 38.29 C-6.43 45.47, -3.06 56.54, 2.43 63.65 M-9.13 36.75 C-8.2 41.59, -4.52 46.89, 1.6 64.73" stroke="#1e1e1e" stroke-width="1" fill="none"></path></g><g transform="translate(1732.0598958333326 818.1028645833342) rotate(0 0.7786584720761311 32.37289473538294)"><path d="M12.28 38.28 C6.76 45.65, 2.8 56.72, 2.43 63.65 M11.39 36.74 C8.16 41.72, 7.67 47.02, 1.6 64.73" stroke="#1e1e1e" stroke-width="1" fill="none"></path></g></g><mask></mask><g stroke-linecap="round" transform="translate(1585.7200520833328 493.8997395833337) rotate(0 164.8105468750001 49.216796875)"><path d="M24.61 0 M24.61 0 C120.48 -3.09, 217.5 -2.61, 305.01 0 M24.61 0 C131.77 -0.47, 238 0.02, 305.01 0 M305.01 0 C323.31 -0.27, 328.1 7.23, 329.62 24.61 M305.01 0 C321.91 -1.48, 328.34 6.9, 329.62 24.61 M329.62 24.61 C329.48 38.49, 329.91 51.36, 329.62 73.83 M329.62 24.61 C330.34 36.39, 329.38 50.16, 329.62 73.83 M329.62 73.83 C330.34 91.77, 322.7 98.83, 305.01 98.43 M329.62 73.83 C331.11 91.82, 322.19 100.15, 305.01 98.43 M305.01 98.43 C197.9 97.98, 87.85 97.33, 24.61 98.43 M305.01 98.43 C197.47 99.06, 90.3 98.53, 24.61 98.43 M24.61 98.43 C8.53 96.6, -0.09 88.64, 0 73.83 M24.61 98.43 C9.12 97.64, -0.55 91.29, 0 73.83 M0 73.83 C1.16 62.26, -0.87 50.08, 0 24.61 M0 73.83 C-0.08 61.06, -0.14 48.5, 0 24.61 M0 24.61 C0.07 8.85, 8.34 1.85, 24.61 0 M0 24.61 C2 6.39, 10.41 -0.45, 24.61 0" stroke="#1e1e1e" stroke-width="1" fill="none"></path></g><g transform="translate(1591.4407399495437 505.6165364583337) rotate(0 159.08985900878918 37.5)"><text x="159.08985900878906" y="0" font-family="Virgil, Segoe UI Emoji" font-size="20px" fill="#1e1e1e" text-anchor="middle" style="white-space: pre;" direction="ltr" dominant-baseline="text-before-edge">group words per 3s of speaking </text><text x="159.08985900878906" y="25" font-family="Virgil, Segoe UI Emoji" font-size="20px" fill="#1e1e1e" text-anchor="middle" style="white-space: pre;" direction="ltr" dominant-baseline="text-before-edge">to create chunk of sentences </text><text x="159.08985900878906" y="50" font-family="Virgil, Segoe UI Emoji" font-size="20px" fill="#1e1e1e" text-anchor="middle" style="white-space: pre;" direction="ltr" dominant-baseline="text-before-edge">into a csv file</text></g><g stroke-linecap="round"><g transform="translate(1746.0989583333326 601.6888020833337) rotate(0 0.48882628503383785 49.54597475085876)"><path d="M-0.79 -0.09 C-1.05 16.47, -0.45 83.6, -0.44 100.28 M1 -1.19 C1.01 14.9, 1.73 81.19, 1.83 98.26" stroke="#1e1e1e" stroke-width="1" fill="none"></path></g><g transform="translate(1746.0989583333326 601.6888020833337) rotate(0 0.48882628503383785 49.54597475085876)"><path d="M-8.82 68.78 C-3.97 79.49, -0.29 90.75, 1.69 97.73 M-8.3 69.25 C-4.46 81.48, -1.56 90.12, 1.61 97.36" stroke="#1e1e1e" stroke-width="1" fill="none"></path></g><g transform="translate(1746.0989583333326 601.6888020833337) rotate(0 0.48882628503383785 49.54597475085876)"><path d="M11.7 68.6 C8.44 79.25, 4.02 90.57, 1.69 97.73 M12.22 69.07 C8.51 81.39, 3.86 90.1, 1.61 97.36" stroke="#1e1e1e" stroke-width="1" fill="none"></path></g></g><mask></mask><g stroke-linecap="round" transform="translate(1143.942708333333 314.6992187500006) rotate(0 152.05403645833337 54.544270833333286)"><path d="M27.27 0 M27.27 0 C125.01 0.69, 221.66 1.29, 276.84 0 M27.27 0 C119.69 -0.99, 211.42 -0.79, 276.84 0 M276.84 0 C295.86 1.28, 304.86 9.17, 304.11 27.27 M276.84 0 C294.27 -0.22, 303.18 10.61, 304.11 27.27 M304.11 27.27 C304.35 42.45, 304.44 61.2, 304.11 81.82 M304.11 27.27 C303.39 48.67, 303.83 68.58, 304.11 81.82 M304.11 81.82 C303.31 100.32, 293.77 108.97, 276.84 109.09 M304.11 81.82 C305.32 100.24, 293.07 109.3, 276.84 109.09 M276.84 109.09 C206.93 106.26, 132.33 108.56, 27.27 109.09 M276.84 109.09 C187.02 110.43, 97.73 109.91, 27.27 109.09 M27.27 109.09 C8.63 109.13, -0.4 99.05, 0 81.82 M27.27 109.09 C8.92 108.89, -2.28 101.65, 0 81.82 M0 81.82 C-1.79 64.37, 0.4 45.96, 0 27.27 M0 81.82 C-0.12 67.75, 0.35 51.65, 0 27.27 M0 27.27 C-1.37 10.67, 9.46 0.61, 27.27 0 M0 27.27 C-0.29 7.9, 8.93 -2.29, 27.27 0" stroke="#1971c2" stroke-width="1" fill="none"></path></g><g transform="translate(1155.9468638102212 331.74348958333394) rotate(0 140.0498809814453 37.5)"><text x="140.0498809814453" y="0" font-family="Virgil, Segoe UI Emoji" font-size="20px" fill="#1971c2" text-anchor="middle" style="white-space: pre;" direction="ltr" dominant-baseline="text-before-edge">Cut mp3 files into chunk of </text><text x="140.0498809814453" y="25" font-family="Virgil, Segoe UI Emoji" font-size="20px" fill="#1971c2" text-anchor="middle" style="white-space: pre;" direction="ltr" dominant-baseline="text-before-edge">sentences (python script or </text><text x="140.0498809814453" y="50" font-family="Virgil, Segoe UI Emoji" font-size="20px" fill="#1971c2" text-anchor="middle" style="white-space: pre;" direction="ltr" dominant-baseline="text-before-edge">AI model?)</text></g><g stroke-linecap="round"><g transform="translate(925.609375 871.9648437500005) rotate(0 101.23000819110928 -253.72832315787662)"><path d="M-0.34 -0.5 C20.3 -73.77, 91.14 -354.09, 124.99 -438.5 C158.85 -522.91, 189.7 -495.58, 202.8 -506.96" stroke="#1971c2" stroke-width="1.5" fill="none" stroke-dasharray="8 9"></path></g><g transform="translate(925.609375 871.9648437500005) rotate(0 101.23000819110928 -253.72832315787662)"><path d="M176.91 -489.9 C188.7 -496.42, 197.05 -501.65, 202.77 -505.82" stroke="#1971c2" stroke-width="1.5" fill="none"></path></g><g transform="translate(925.609375 871.9648437500005) rotate(0 101.23000819110928 -253.72832315787662)"><path d="M172.16 -509.86 C186.01 -508.48, 196.23 -505.81, 202.77 -505.82" stroke="#1971c2" stroke-width="1.5" fill="none"></path></g></g><mask></mask><g stroke-linecap="round"><g transform="translate(1466.7226562499998 352.2643229166672) rotate(0 52.38305462971323 -100.87062015111246)"><path d="M0.37 0.57 C3.22 -28.26, -0.03 -139.73, 17.31 -173.54 C34.65 -207.36, 89.51 -197.55, 104.4 -202.31" stroke="#1971c2" stroke-width="1.5" fill="none" stroke-dasharray="8 9"></path></g><g transform="translate(1466.7226562499998 352.2643229166672) rotate(0 52.38305462971323 -100.87062015111246)"><path d="M78.15 -191.2 C86.1 -195.59, 94.81 -195.81, 105.24 -201.34" stroke="#1971c2" stroke-width="1.5" fill="none"></path></g><g transform="translate(1466.7226562499998 352.2643229166672) rotate(0 52.38305462971323 -100.87062015111246)"><path d="M76.37 -211.65 C84.79 -209.62, 94.06 -203.42, 105.24 -201.34" stroke="#1971c2" stroke-width="1.5" fill="none"></path></g></g><mask></mask><g stroke-linecap="round" transform="translate(1148.005208333333 663.0065104166672) rotate(0 146.40950520833337 60.18229166666663)"><path d="M30.09 0 M30.09 0 C86.91 0.2, 142.26 0.03, 262.73 0 M30.09 0 C108.58 1.1, 186.09 0.11, 262.73 0 M262.73 0 C281.12 1.15, 291.89 9.6, 292.82 30.09 M262.73 0 C282.5 -0.04, 291.53 11, 292.82 30.09 M292.82 30.09 C292.05 44.96, 292.24 63.3, 292.82 90.27 M292.82 30.09 C292.73 45.37, 292.62 61.04, 292.82 90.27 M292.82 90.27 C294.17 109.75, 283.54 121.51, 262.73 120.36 M292.82 90.27 C291.25 110.22, 283.3 121, 262.73 120.36 M262.73 120.36 C211.71 120.9, 164.47 120.75, 30.09 120.36 M262.73 120.36 C203.39 122.91, 145.69 121.49, 30.09 120.36 M30.09 120.36 C10.01 119.87, -1.2 109.74, 0 90.27 M30.09 120.36 C11.7 121.53, -1.82 109.7, 0 90.27 M0 90.27 C0.56 66.85, -0.2 47.68, 0 30.09 M0 90.27 C-0.2 76.83, -0.68 62.71, 0 30.09 M0 30.09 C-0.45 11.92, 8.33 1.87, 30.09 0 M0 30.09 C0.48 10.58, 9.53 -1.17, 30.09 0" stroke="#1971c2" stroke-width="1" fill="none"></path></g><g transform="translate(1179.0348154703775 698.1888020833338) rotate(0 115.37989807128906 25)"><text x="115.37989807128906" y="0" font-family="Virgil, Segoe UI Emoji" font-size="20px" fill="#1971c2" text-anchor="middle" style="white-space: pre;" direction="ltr" dominant-baseline="text-before-edge">Cut big sentences into </text><text x="115.37989807128906" y="25" font-family="Virgil, Segoe UI Emoji" font-size="20px" fill="#1971c2" text-anchor="middle" style="white-space: pre;" direction="ltr" dominant-baseline="text-before-edge">smaller chunks</text></g><g stroke-linecap="round"><g transform="translate(1294.9908854166665 603.2213541666672) rotate(0 0.7469824555020068 27.849875159809983)"><path d="M0.25 1.14 C0.32 10.34, 1.01 45.91, 1.24 54.56" stroke="#1971c2" stroke-width="1.5" fill="none" stroke-dasharray="8 9"></path></g><g transform="translate(1294.9908854166665 603.2213541666672) rotate(0 0.7469824555020068 27.849875159809983)"><path d="M-6.7 29.33 C-4.53 39.25, -3.42 46.73, -0.24 52.59" stroke="#1971c2" stroke-width="1.5" fill="none"></path></g><g transform="translate(1294.9908854166665 603.2213541666672) rotate(0 0.7469824555020068 27.849875159809983)"><path d="M11.84 28.92 C7.19 39.03, 1.48 46.66, -0.24 52.59" stroke="#1971c2" stroke-width="1.5" fill="none"></path></g></g><mask></mask><g stroke-linecap="round"><g transform="translate(1461.4947916666665 726.3854166666672) rotate(0 117.66741203605011 -46.81246210384472)"><path d="M0.8 -1.04 C35.96 -16.4, 172.22 -88.01, 210.76 -92.36 C249.31 -96.7, 228.51 -38.28, 232.06 -27.11" stroke="#1971c2" stroke-width="1.5" fill="none" stroke-dasharray="8 9"></path></g><g transform="translate(1461.4947916666665 726.3854166666672) rotate(0 117.66741203605011 -46.81246210384472)"><path d="M221.68 -57.3 C226.84 -49.68, 226.87 -41.58, 233.68 -28.48" stroke="#1971c2" stroke-width="1.5" fill="none"></path></g><g transform="translate(1461.4947916666665 726.3854166666672) rotate(0 117.66741203605011 -46.81246210384472)"><path d="M242.17 -56.14 C241.56 -48.71, 235.82 -40.94, 233.68 -28.48" stroke="#1971c2" stroke-width="1.5" fill="none"></path></g></g><mask></mask><g stroke-linecap="round" transform="translate(1983.6119791666656 566.717447916667) rotate(0 442 185.5)"><path d="M7.86 8.16 C7.86 8.16, 7.86 8.16, 7.86 8.16 M7.86 8.16 C7.86 8.16, 7.86 8.16, 7.86 8.16 M3.66 19.09 C9.58 12.91, 13.1 8.92, 18.1 2.48 M3.66 19.09 C7.16 15.23, 9.58 12.12, 18.1 2.48 M2.75 26.24 C8.36 18.43, 14.28 11.62, 24.4 1.33 M2.75 26.24 C10.29 18.27, 15.38 11.29, 24.4 1.33 M1.83 33.39 C8.88 25.09, 15.19 17.67, 30.7 0.18 M1.83 33.39 C8.29 26.91, 14.55 18.21, 30.7 0.18 M1.57 39.79 C10.35 30.42, 15.06 24.56, 34.37 2.05 M1.57 39.79 C12.06 27.81, 23.93 15.52, 34.37 2.05 M1.96 45.43 C14.06 29.67, 25.43 15.43, 39.36 2.41 M1.96 45.43 C13.57 33.24, 22.82 19.79, 39.36 2.41 M1.7 51.83 C9.72 38.93, 22.35 30.4, 45 2.02 M1.7 51.83 C14.34 38.09, 25.91 22.92, 45 2.02 M1.44 58.23 C12.18 45.03, 22.46 31.28, 49.99 2.38 M1.44 58.23 C12.87 45.29, 23.26 33.42, 49.99 2.38 M1.83 63.87 C19.9 41.99, 39.3 17.19, 55.63 1.98 M1.83 63.87 C18.44 44.92, 34.04 27.07, 55.63 1.98 M1.57 70.27 C21.21 51.31, 36.2 27.75, 60.62 2.34 M1.57 70.27 C24.61 44.2, 46.63 19.37, 60.62 2.34 M1.97 75.91 C16.76 58.72, 28.32 45.61, 66.26 1.95 M1.97 75.91 C17.96 56.8, 35.07 37.58, 66.26 1.95 M1.71 82.31 C24.91 53.05, 49.29 28.31, 71.25 2.31 M1.71 82.31 C15.68 66.48, 31.47 50.79, 71.25 2.31 M1.44 88.71 C21.5 69.42, 38.2 48.8, 76.89 1.91 M1.44 88.71 C28.47 58.48, 56.51 27.44, 76.89 1.91 M1.84 94.35 C33.29 62.74, 62.21 27.33, 81.88 2.27 M1.84 94.35 C27.1 66.81, 50.52 38.86, 81.88 2.27 M1.58 100.75 C22.87 73.39, 46 47.78, 87.52 1.88 M1.58 100.75 C29.98 68.33, 58.6 34.96, 87.52 1.88 M1.97 106.39 C23.84 82.62, 42.46 59.59, 92.51 2.24 M1.97 106.39 C36.27 68.24, 68.97 29.33, 92.51 2.24 M1.71 112.79 C25.42 86.68, 47.53 60.67, 98.15 1.85 M1.71 112.79 C20.3 90.87, 38.67 67.5, 98.15 1.85 M1.45 119.19 C24.06 95.26, 46.84 67.26, 103.14 2.21 M1.45 119.19 C26.95 93.46, 49.55 64.41, 103.14 2.21 M1.84 124.83 C24.94 98.37, 51.01 67.68, 108.78 1.81 M1.84 124.83 C40.51 80.63, 78.98 36.05, 108.78 1.81 M1.58 131.23 C29.61 98.89, 56.33 68.7, 113.77 2.17 M1.58 131.23 C30.34 97.82, 57.95 63.78, 113.77 2.17 M1.98 136.87 C30.89 107.9, 54.92 75.68, 119.41 1.78 M1.98 136.87 C32.3 101.87, 61.91 66.44, 119.41 1.78 M1.72 143.27 C34.79 107.1, 64.59 71.56, 124.4 2.14 M1.72 143.27 C38 102.01, 76.1 61.11, 124.4 2.14 M1.45 149.67 C50.47 92.1, 98.15 39.74, 130.04 1.74 M1.45 149.67 C45.77 96.65, 90.61 45.87, 130.04 1.74 M1.85 155.31 C27.56 125.03, 57.66 92.03, 135.03 2.1 M1.85 155.31 C48.47 101.48, 96.53 45.69, 135.03 2.1 M1.59 161.71 C44.33 108.72, 90.13 59.43, 140.67 1.71 M1.59 161.71 C45 111.14, 88.09 59.38, 140.67 1.71 M1.98 167.35 C43.7 118.43, 87.83 71.76, 145.66 2.07 M1.98 167.35 C54.79 108.95, 105.87 49.97, 145.66 2.07 M1.72 173.75 C38.69 130.53, 77.17 86.11, 150.65 2.43 M1.72 173.75 C40.1 128.63, 78 85.82, 150.65 2.43 M1.46 180.14 C53.56 118.93, 106.33 58.58, 156.29 2.03 M1.46 180.14 C53.84 123.59, 103.14 66.29, 156.29 2.03 M1.85 185.79 C46.39 133.85, 90.61 82.12, 161.28 2.39 M1.85 185.79 C49.6 131.66, 96.15 76.77, 161.28 2.39 M1.59 192.19 C37.58 154.78, 68.88 116.93, 166.92 2 M1.59 192.19 C37.86 149.39, 75.17 106.7, 166.92 2 M1.99 197.83 C42.65 150.03, 83.57 101.47, 171.91 2.36 M1.99 197.83 C67.78 123.02, 132.67 48.39, 171.91 2.36 M1.72 204.23 C64.5 132.8, 128.83 60.57, 177.55 1.96 M1.72 204.23 C61.59 134.12, 121.07 65.58, 177.55 1.96 M1.46 210.62 C56.75 145.78, 114.36 81.03, 182.54 2.32 M1.46 210.62 C54.12 152.58, 104.77 93.69, 182.54 2.32 M1.86 216.27 C60.35 149.29, 121.24 79.92, 188.18 1.93 M1.86 216.27 C53.67 157.12, 104.85 96.86, 188.18 1.93 M1.6 222.66 C76.11 137.09, 152.47 51.26, 193.17 2.29 M1.6 222.66 C74.88 135.62, 148.96 50.46, 193.17 2.29 M1.99 228.31 C42.75 180.54, 84.16 131.5, 198.81 1.9 M1.99 228.31 C70.25 147.1, 141 66.5, 198.81 1.9 M1.73 234.71 C59.89 167.08, 119.46 98.76, 203.8 2.26 M1.73 234.71 C64.15 163.74, 127.03 93.05, 203.8 2.26 M1.47 241.1 C45.31 188.96, 87.6 139.73, 209.44 1.86 M1.47 241.1 C50.2 187.16, 97.78 132.27, 209.44 1.86 M1.86 246.75 C83.47 153.37, 162.41 62.33, 214.43 2.22 M1.86 246.75 C60.18 180.11, 118.59 112.26, 214.43 2.22 M1.6 253.14 C68.16 177.2, 132.52 100.85, 220.07 1.83 M1.6 253.14 C57.63 187.93, 114.49 121.41, 220.07 1.83 M2 258.79 C77.05 176.02, 149.22 91.66, 225.06 2.19 M2 258.79 C79.7 167.86, 156.84 78.24, 225.06 2.19 M1.73 265.19 C74.19 185.53, 142.07 103.83, 230.7 1.79 M1.73 265.19 C80.41 173.16, 160.06 80.68, 230.7 1.79 M1.47 271.58 C83.51 176.81, 163.82 83.77, 235.69 2.15 M1.47 271.58 C51.18 217.15, 99.83 162, 235.69 2.15 M1.87 277.23 C67.1 200.86, 133.65 125.79, 241.33 1.76 M1.87 277.23 C75.01 194.83, 147.84 111.41, 241.33 1.76 M1.61 283.62 C95.88 176.8, 188.71 69.85, 246.32 2.12 M1.61 283.62 C84.17 187.08, 168.87 90.81, 246.32 2.12 M2 289.27 C71.97 209.42, 141.16 129.07, 251.96 1.72 M2 289.27 C66.86 216.31, 130.92 143.37, 251.96 1.72 M1.74 295.66 C72.96 210.84, 145.52 127.35, 256.95 2.08 M1.74 295.66 C73.35 213.61, 144.72 131.57, 256.95 2.08 M1.48 302.06 C62.81 233.21, 122.42 163.35, 262.59 1.69 M1.48 302.06 C71.26 221.21, 140.96 141.5, 262.59 1.69 M1.87 307.71 C69.82 229.3, 139.66 149.47, 267.58 2.05 M1.87 307.71 C99.63 195.96, 196.45 84.81, 267.58 2.05 M1.61 314.1 C70.83 233.86, 140.81 153.09, 272.56 2.41 M1.61 314.1 C87.33 214.85, 173.19 116.7, 272.56 2.41 M2.01 319.75 C65.57 247.22, 127.77 176.82, 278.21 2.01 M2.01 319.75 C101.3 207.59, 199.89 93.16, 278.21 2.01 M1.74 326.14 C92.15 223.2, 181.95 117.76, 283.19 2.37 M1.74 326.14 C86.21 226.69, 172.43 128.52, 283.19 2.37 M1.48 332.54 C70.8 255.15, 139.28 177.16, 288.84 1.98 M1.48 332.54 C73.62 249.91, 145.63 167.77, 288.84 1.98 M0.57 339.69 C63.55 268.62, 127.33 195.62, 293.82 2.34 M0.57 339.69 C76.1 255.21, 150.13 170.34, 293.82 2.34 M1.62 344.58 C79.86 254.21, 158.13 163.29, 299.47 1.94 M1.62 344.58 C73.18 260.77, 145.82 177.8, 299.47 1.94 M2.01 350.23 C107.86 228.02, 215.28 106.96, 304.45 2.3 M2.01 350.23 C94.48 244.25, 186.32 138.19, 304.45 2.3 M3.72 354.36 C71.7 280.03, 137.12 203.47, 310.1 1.91 M3.72 354.36 C116.3 223.38, 230.76 91.68, 310.1 1.91 M4.77 359.25 C121.2 224.25, 237.59 89.44, 315.08 2.27 M4.77 359.25 C106.96 242.55, 209.53 125.3, 315.08 2.27 M7.79 361.87 C110.38 242.95, 213.13 124.47, 320.73 1.88 M7.79 361.87 C98.51 256.22, 190.05 151.48, 320.73 1.88 M10.81 364.5 C124.79 233.87, 240.54 100.98, 325.71 2.24 M10.81 364.5 C109.07 249.6, 207.45 136.91, 325.71 2.24 M13.82 367.12 C130.15 234.44, 245.91 99.94, 331.36 1.84 M13.82 367.12 C101.13 268.32, 187.25 169.51, 331.36 1.84 M17.5 368.99 C85.65 288.43, 155.54 208.17, 336.34 2.2 M17.5 368.99 C134.35 235.66, 251.22 101.18, 336.34 2.2 M20.52 371.61 C89.51 291.9, 159.04 211.28, 341.99 1.81 M20.52 371.61 C88.75 293.17, 156 215.85, 341.99 1.81 M25.5 371.97 C110.06 274.47, 195.17 177.43, 346.97 2.17 M25.5 371.97 C127.96 253.57, 231.5 135.13, 346.97 2.17 M29.84 373.09 C127.38 262.18, 223.51 151.68, 352.62 1.77 M29.84 373.09 C101.44 289.85, 173.61 207.4, 352.62 1.77 M34.82 373.45 C121.11 275.73, 208 177.12, 357.6 2.13 M34.82 373.45 C140.84 251.62, 247.88 128.38, 357.6 2.13 M39.81 373.81 C156.77 240.67, 273.02 108.14, 363.25 1.74 M39.81 373.81 C121.99 279.63, 203.58 185.77, 363.25 1.74 M45.45 373.42 C111.87 296.3, 177.22 222.16, 368.23 2.1 M45.45 373.42 C135 272.81, 223.28 171.43, 368.23 2.1 M50.44 373.78 C140.24 271.72, 228.1 170.07, 373.88 1.7 M50.44 373.78 C135.65 276.31, 219.36 180, 373.88 1.7 M56.08 373.38 C151.52 265.28, 245.41 156.32, 378.86 2.06 M56.08 373.38 C168.45 245.54, 279.46 118.31, 378.86 2.06 M61.07 373.74 C141 281.22, 220.42 190.16, 383.85 2.42 M61.07 373.74 C132.87 288.42, 206.27 204.43, 383.85 2.42 M66.71 373.35 C189.45 232.63, 312.47 91.88, 389.49 2.03 M66.71 373.35 C151.96 276.79, 236.65 179.24, 389.49 2.03 M71.7 373.71 C138.56 297.08, 206.18 219.81, 394.48 2.39 M71.7 373.71 C188.23 241.07, 304.49 107.6, 394.48 2.39 M77.34 373.31 C181.68 252.04, 288.29 130.23, 400.12 1.99 M77.34 373.31 C166.29 273.8, 253.92 172.98, 400.12 1.99 M82.33 373.67 C152.83 293.2, 222.03 213.56, 405.11 2.35 M82.33 373.67 C174.8 266.91, 267.65 159.62, 405.11 2.35 M87.97 373.28 C166.14 284.03, 244.02 195.7, 410.75 1.96 M87.97 373.28 C194.13 249.14, 301.27 125.66, 410.75 1.96 M92.96 373.64 C178.97 276.03, 262.64 179.13, 415.74 2.32 M92.96 373.64 C175.57 277.64, 258.96 182.28, 415.74 2.32 M98.6 373.24 C176.32 280.86, 256.31 191.49, 421.38 1.93 M98.6 373.24 C207.57 248.92, 314.93 125.53, 421.38 1.93 M103.59 373.6 C185.86 277.7, 269.06 182.45, 426.37 2.29 M103.59 373.6 C215.61 246.71, 325.78 119.84, 426.37 2.29 M109.23 373.21 C203.65 265.8, 298.49 156.4, 432.01 1.89 M109.23 373.21 C198.07 270.08, 287.79 167.69, 432.01 1.89 M114.22 373.57 C194.31 280.82, 274.81 188.19, 437 2.25 M114.22 373.57 C190.76 288.28, 265.47 202.27, 437 2.25 M119.86 373.17 C239.65 238.23, 357.16 102.38, 442.64 1.86 M119.86 373.17 C216.61 262.48, 311.99 152.79, 442.64 1.86 M124.85 373.53 C192.45 297.36, 260 219.56, 447.63 2.22 M124.85 373.53 C204.13 283.25, 283.76 192.43, 447.63 2.22 M130.49 373.14 C219.35 269.18, 311.13 164.41, 453.27 1.82 M130.49 373.14 C208.9 284.16, 285.88 195.88, 453.27 1.82 M135.48 373.5 C212.82 286.08, 288.03 198.17, 458.26 2.18 M135.48 373.5 C237.42 255.87, 338.39 139.03, 458.26 2.18 M141.12 373.1 C230.83 272.25, 318.01 170.2, 463.9 1.79 M141.12 373.1 C231.6 269.37, 322.25 165.76, 463.9 1.79 M146.11 373.46 C259.73 240.46, 375 107.84, 468.89 2.15 M146.11 373.46 C211.9 300.16, 277.02 224.63, 468.89 2.15 M151.1 373.82 C218.67 297.25, 286.1 219.1, 474.53 1.75 M151.1 373.82 C252.07 258.17, 352.95 143, 474.53 1.75 M156.74 373.43 C260.58 250.3, 366.58 128.84, 479.52 2.11 M156.74 373.43 C250.21 267.21, 342.39 160.8, 479.52 2.11 M161.73 373.79 C286.65 230.59, 411.67 87.59, 485.17 1.72 M161.73 373.79 C276.03 244.01, 389.81 113.24, 485.17 1.72 M167.37 373.4 C242.27 285.87, 319.59 197.62, 490.15 2.08 M167.37 373.4 C285.7 235.4, 405.08 98.22, 490.15 2.08 M172.36 373.76 C277.26 251.78, 383.07 131.03, 495.8 1.68 M172.36 373.76 C280.38 248.74, 389.12 123.5, 495.8 1.68 M178 373.36 C271.37 264.97, 366.14 156.34, 500.78 2.04 M178 373.36 C266.15 270.79, 355.88 168.35, 500.78 2.04 M182.99 373.72 C307.86 232.73, 430.12 90.37, 505.77 2.4 M182.99 373.72 C288.51 251.25, 394.71 129.22, 505.77 2.4 M188.63 373.33 C266.56 282.57, 343.9 193.78, 511.41 2.01 M188.63 373.33 C271.4 279.42, 352.62 184.73, 511.41 2.01 M193.62 373.69 C301.23 248.16, 408.01 125.37, 516.4 2.37 M193.62 373.69 C294.83 259.14, 394.8 143.26, 516.4 2.37 M199.26 373.29 C310.62 243.95, 420.98 117.02, 522.04 1.98 M199.26 373.29 C318.67 236.62, 437.5 100.06, 522.04 1.98 M204.25 373.65 C327.83 231.31, 453.05 86.95, 527.03 2.34 M204.25 373.65 C326.98 230.41, 451.56 87.27, 527.03 2.34 M209.89 373.26 C276.94 296.52, 343.36 220.68, 532.67 1.94 M209.89 373.26 C309.27 258.05, 408.63 143.24, 532.67 1.94 M214.88 373.62 C337.34 231.85, 458.48 91.03, 537.66 2.3 M214.88 373.62 C337.08 233.42, 458.36 93.41, 537.66 2.3 M220.52 373.22 C330.93 245.8, 441.18 118.59, 543.3 1.91 M220.52 373.22 C346.83 229.8, 473.32 84.72, 543.3 1.91 M225.51 373.58 C345.69 235.85, 466.53 96.17, 548.29 2.27 M225.51 373.58 C299.69 288.86, 374.91 202.14, 548.29 2.27 M231.15 373.19 C300.69 293.95, 370.4 213.48, 553.93 1.87 M231.15 373.19 C342.29 244.92, 453.4 117.03, 553.93 1.87 M236.14 373.55 C322.06 274.49, 408.08 175.58, 558.92 2.23 M236.14 373.55 C307.04 289.27, 379.6 205.83, 558.92 2.23 M241.78 373.15 C306.34 296.9, 372.78 221.33, 564.56 1.84 M241.78 373.15 C346.78 253.26, 451.61 132.41, 564.56 1.84 M246.77 373.51 C367.86 235.1, 488.59 97.24, 569.55 2.2 M246.77 373.51 C357.21 245.84, 468.12 119.21, 569.55 2.2 M252.41 373.12 C321.52 294.51, 390.45 214.79, 575.19 1.8 M252.41 373.12 C352.94 258.6, 453.45 142.78, 575.19 1.8 M257.4 373.48 C336.27 283.83, 415.3 192.04, 580.18 2.16 M257.4 373.48 C353.88 261.6, 450.76 150.01, 580.18 2.16 M263.04 373.09 C353.41 266.36, 446.27 161.15, 585.82 1.77 M263.04 373.09 C360.85 260.61, 458.52 148.21, 585.82 1.77 M268.03 373.45 C351.29 276.55, 434.4 182.2, 590.81 2.13 M268.03 373.45 C376.84 249.82, 484.43 126.22, 590.81 2.13 M273.02 373.81 C397.85 230.57, 521.31 86.83, 596.45 1.73 M273.02 373.81 C377.83 255.76, 480.53 136.83, 596.45 1.73 M278.66 373.41 C348.25 293.64, 418.01 214.36, 601.44 2.09 M278.66 373.41 C405.57 226.3, 533.89 79.48, 601.44 2.09 M283.65 373.77 C349.56 296.37, 416 220.41, 607.08 1.7 M283.65 373.77 C349.01 297.73, 414.85 221.31, 607.08 1.7 M289.29 373.38 C401.6 244.05, 514.72 113.93, 612.07 2.06 M289.29 373.38 C411.2 234.19, 531.58 95.77, 612.07 2.06 M294.28 373.74 C411.47 237.77, 530.48 100.44, 617.06 2.42 M294.28 373.74 C365.07 290.41, 437.22 208.31, 617.06 2.42 M299.92 373.34 C404.47 250.96, 509.69 130.34, 622.7 2.02 M299.92 373.34 C381.99 278.13, 465.97 182.67, 622.7 2.02 M304.91 373.7 C375.96 289.93, 449.36 206.53, 627.69 2.38 M304.91 373.7 C388.73 276.68, 472.93 180.2, 627.69 2.38 M310.55 373.31 C384.34 286.71, 458.15 202.43, 633.33 1.99 M310.55 373.31 C431.66 233.44, 554.52 92.71, 633.33 1.99 M315.54 373.67 C396.12 279.16, 477.67 186.73, 638.32 2.35 M315.54 373.67 C390.63 290.34, 464.01 206.25, 638.32 2.35 M321.18 373.27 C443.04 233.16, 565.77 93.01, 643.96 1.96 M321.18 373.27 C442.89 232.14, 565.12 91.48, 643.96 1.96 M326.17 373.63 C409.47 278.07, 492.29 182.29, 648.95 2.32 M326.17 373.63 C408.27 280.07, 489.83 185.99, 648.95 2.32 M331.81 373.24 C433.64 256.68, 536.22 138.49, 654.59 1.92 M331.81 373.24 C403.74 290.43, 474.58 208, 654.59 1.92 M336.8 373.6 C456.57 234.18, 576.55 94.91, 659.58 2.28 M336.8 373.6 C432.06 266.36, 524.78 158.14, 659.58 2.28 M342.44 373.2 C414.31 290.56, 485.12 208.13, 665.22 1.89 M342.44 373.2 C470.03 223.97, 598.76 76.53, 665.22 1.89 M347.43 373.56 C432.7 275.87, 518.7 178.27, 670.21 2.25 M347.43 373.56 C447.59 256.53, 548.39 141.39, 670.21 2.25 M353.07 373.17 C448.02 263.79, 542.79 154.01, 675.85 1.85 M353.07 373.17 C454.36 256.76, 556.98 138.77, 675.85 1.85 M358.06 373.53 C460.84 254.21, 563.88 135.88, 680.84 2.21 M358.06 373.53 C459.6 256.07, 561 139.9, 680.84 2.21 M363.7 373.13 C481.64 237.42, 597.66 104.08, 686.48 1.82 M363.7 373.13 C463.71 257.74, 564.18 141.96, 686.48 1.82 M368.69 373.49 C452.69 277.43, 536.57 180.37, 691.47 2.18 M368.69 373.49 C472.49 255.65, 575.06 137.81, 691.47 2.18 M374.33 373.1 C463.82 268.82, 554.76 164.76, 697.11 1.78 M374.33 373.1 C449.42 284.92, 525.76 197.03, 697.11 1.78 M379.32 373.46 C487.33 250.7, 593.3 129.35, 702.1 2.14 M379.32 373.46 C494.45 239.8, 610.99 106.22, 702.1 2.14 M384.3 373.82 C495.76 246.75, 606.01 118.78, 707.74 1.75 M384.3 373.82 C468.56 275.07, 553.21 176.85, 707.74 1.75 M389.95 373.43 C488.21 260.05, 586.76 147.4, 712.73 2.11 M389.95 373.43 C486.6 262.15, 583.39 150.21, 712.73 2.11 M394.93 373.79 C478.52 279.5, 560.31 184.02, 718.37 1.71 M394.93 373.79 C490.59 264.09, 585.49 154.39, 718.37 1.71 M400.58 373.39 C492.41 266.43, 586.73 157.97, 723.36 2.07 M400.58 373.39 C474.29 287.88, 548.08 203.68, 723.36 2.07 M405.56 373.75 C523.34 238.76, 642.87 101.74, 729 1.68 M405.56 373.75 C518.46 243.71, 630.36 114.67, 729 1.68 M411.21 373.36 C511.91 257.13, 613.87 140.03, 733.99 2.04 M411.21 373.36 C491.37 283.23, 570.25 192.13, 733.99 2.04 M416.19 373.72 C496.06 283.66, 574.45 192.31, 738.98 2.4 M416.19 373.72 C531.62 240.79, 648.46 106.14, 738.98 2.4 M421.84 373.32 C530.71 246.17, 640.12 120.16, 744.62 2.01 M421.84 373.32 C512.12 269.34, 601.74 166.75, 744.62 2.01 M426.82 373.68 C518.76 266.86, 611.07 161.86, 749.61 2.37 M426.82 373.68 C492.13 297.39, 557.36 221.81, 749.61 2.37 M432.47 373.29 C514.07 279.27, 596.33 185.85, 755.25 1.97 M432.47 373.29 C521.58 270.88, 610.96 167.85, 755.25 1.97 M437.45 373.65 C541.08 256.75, 643.48 138.06, 760.24 2.33 M437.45 373.65 C521.26 279.65, 603.65 183.74, 760.24 2.33 M443.1 373.25 C530.06 275.67, 616.26 175.39, 765.88 1.94 M443.1 373.25 C511.4 294.19, 580.42 214.72, 765.88 1.94 M448.08 373.61 C576.59 225.36, 704.38 77.96, 770.87 2.3 M448.08 373.61 C521.72 287.81, 595.46 203.37, 770.87 2.3 M453.73 373.22 C561.79 252.29, 666.75 129.87, 776.51 1.9 M453.73 373.22 C546.09 267.7, 636.69 163.43, 776.51 1.9 M458.71 373.58 C523.73 297.58, 590.49 220.48, 781.5 2.26 M458.71 373.58 C572.58 244.34, 684.46 115.2, 781.5 2.26 M464.36 373.18 C565.82 259.39, 665.72 144.62, 787.14 1.87 M464.36 373.18 C560.11 264.2, 654.65 155.23, 787.14 1.87 M469.34 373.54 C550.82 277.38, 633.19 183.56, 792.13 2.23 M469.34 373.54 C588.39 239.19, 706.4 103.28, 792.13 2.23 M474.99 373.15 C543.11 296.04, 611.06 218.67, 797.77 1.83 M474.99 373.15 C566.9 265.39, 659.35 159.15, 797.77 1.83 M479.97 373.51 C572.49 266.84, 663.57 162.42, 802.76 2.19 M479.97 373.51 C593.24 242.8, 706.73 111.41, 802.76 2.19 M485.62 373.12 C600.48 241.14, 714.91 109.89, 808.4 1.8 M485.62 373.12 C588.98 253.99, 692.43 135.04, 808.4 1.8 M490.6 373.48 C573.45 275.87, 657.21 181.19, 813.39 2.16 M490.6 373.48 C589.76 258.51, 688.79 145.72, 813.39 2.16 M496.25 373.08 C562.83 298.04, 628.55 223.49, 819.03 1.76 M496.25 373.08 C584.84 270.33, 673.55 168.57, 819.03 1.76 M501.23 373.44 C623.1 233.53, 743.87 94.31, 824.02 2.12 M501.23 373.44 C611.65 246.28, 721.74 119.96, 824.02 2.12 M506.22 373.8 C615.88 248.05, 725.96 121.03, 829.66 1.73 M506.22 373.8 C588.36 280.03, 669.98 186.05, 829.66 1.73 M511.86 373.41 C594.62 278.75, 678.35 182.56, 834.65 2.09 M511.86 373.41 C608.23 265.42, 702.69 155.9, 834.65 2.09 M516.85 373.77 C606.28 271.76, 696.18 167.95, 840.29 1.69 M516.85 373.77 C638.78 233.14, 759.76 93.47, 840.29 1.69 M522.49 373.37 C636.98 241.84, 752.7 109.81, 845.28 2.06 M522.49 373.37 C628.09 252.24, 733.98 130.72, 845.28 2.06 M527.48 373.73 C610.31 277.38, 693.17 183.18, 852.23 0.15 M527.48 373.73 C656.96 225.9, 784.15 78.82, 852.23 0.15 M533.13 373.34 C647.82 241.69, 761.45 112.05, 857.22 0.51 M533.13 373.34 C637.55 251.41, 742.58 130.67, 857.22 0.51 M538.11 373.7 C616.87 282.21, 695 193.48, 861.55 1.63 M538.11 373.7 C626.82 272.49, 714.94 170.91, 861.55 1.63 M543.76 373.3 C655.45 244.53, 768.63 115.02, 866.54 1.99 M543.76 373.3 C636.77 268.15, 728.21 162.96, 866.54 1.99 M548.74 373.66 C657.16 249.72, 765.6 126.68, 870.21 3.86 M548.74 373.66 C612.63 300.73, 676.64 226.97, 870.21 3.86 M554.39 373.27 C649.14 266.44, 741.23 160.32, 873.23 6.48 M554.39 373.27 C661.82 247.93, 769.12 124.7, 873.23 6.48 M559.37 373.63 C672.14 243.15, 785.47 111.89, 876.25 9.1 M559.37 373.63 C683.68 230.4, 807.38 87.87, 876.25 9.1 M565.02 373.23 C671.74 252.46, 777.52 131.49, 879.27 11.73 M565.02 373.23 C667.71 253.97, 770.62 135.14, 879.27 11.73 M570 373.59 C654.12 278.16, 738.33 180.6, 882.29 14.35 M570 373.59 C656.53 272.2, 744.18 171.61, 882.29 14.35 M575.65 373.2 C661.84 275.25, 748.13 175.86, 883.34 19.24 M575.65 373.2 C645.81 290.77, 716.95 209.72, 883.34 19.24 M580.63 373.56 C684.79 251.76, 789.46 131.81, 884.39 24.13 M580.63 373.56 C678.11 262.08, 775.07 151.47, 884.39 24.13 M586.28 373.17 C686.41 257.13, 786.95 142.43, 884.78 29.77 M586.28 373.17 C685.28 260.13, 783.5 146.94, 884.78 29.77 M591.26 373.53 C708.32 239.74, 826.98 104.74, 886.49 33.91 M591.26 373.53 C705.5 243.42, 819.63 112.12, 886.49 33.91 M596.91 373.13 C702.3 254.06, 806.13 133.33, 886.23 40.3 M596.91 373.13 C666.78 291.68, 737.07 210.35, 886.23 40.3 M601.89 373.49 C704.59 255.55, 807.24 137.23, 886.62 45.95 M601.89 373.49 C710.69 249.35, 819.2 124.59, 886.62 45.95 M607.54 373.1 C670.2 300.54, 735.4 227.32, 886.36 52.34 M607.54 373.1 C691.78 275.2, 776.35 177.66, 886.36 52.34 M612.52 373.46 C696.41 276.78, 779.37 181.53, 886.1 58.74 M612.52 373.46 C675.27 300.99, 736.72 230.49, 886.1 58.74 M617.51 373.82 C681.55 297.71, 747.09 221.48, 886.49 64.39 M617.51 373.82 C718.05 260.11, 817.74 145.99, 886.49 64.39 M623.15 373.42 C681.47 306.16, 738.85 238.72, 886.23 70.78 M623.15 373.42 C693.17 293.16, 762.4 213.81, 886.23 70.78 M628.14 373.78 C715.11 272.34, 802.76 171.88, 886.63 76.43 M628.14 373.78 C685.73 308.48, 743.1 243.12, 886.63 76.43 M633.78 373.39 C689.72 306.17, 748.58 240.76, 886.37 82.82 M633.78 373.39 C698.45 300.32, 763.84 226.38, 886.37 82.82 M638.77 373.75 C705.46 298.24, 772.7 219.49, 886.1 89.22 M638.77 373.75 C726.44 273.78, 814.98 171.64, 886.1 89.22 M644.41 373.35 C735.21 267.58, 829.79 160.96, 886.5 94.86 M644.41 373.35 C738.88 265.26, 833.82 156.48, 886.5 94.86 M649.4 373.71 C705.43 308.41, 763.4 243.59, 886.24 101.26 M649.4 373.71 C742.6 265.52, 837.02 155.59, 886.24 101.26 M655.04 373.32 C715.34 303.78, 776.59 233.75, 886.63 106.91 M655.04 373.32 C721.97 297.05, 786.09 222.16, 886.63 106.91 M660.03 373.68 C717.1 310.16, 771.81 244, 886.37 113.3 M660.03 373.68 C727.34 296.61, 793.75 220.43, 886.37 113.3 M665.67 373.28 C748.35 280.61, 827.82 186.42, 886.11 119.7 M665.67 373.28 C741.64 284.36, 819.65 195.34, 886.11 119.7 M670.66 373.64 C748.59 284.44, 825.66 196.63, 886.5 125.34 M670.66 373.64 C736.79 297.3, 802.85 221.54, 886.5 125.34 M676.3 373.25 C747.33 292.6, 817.28 211.2, 886.24 131.74 M676.3 373.25 C729.67 312.3, 784.27 249.55, 886.24 131.74 M681.29 373.61 C730 320.28, 774.09 266.27, 886.64 137.39 M681.29 373.61 C726.48 318.89, 772.62 265.61, 886.64 137.39 M686.93 373.21 C753.21 296.65, 817.41 220.2, 886.38 143.78 M686.93 373.21 C741.13 312.68, 794.19 250.9, 886.38 143.78 M691.92 373.57 C762.02 292.7, 835.01 209.24, 886.11 150.18 M691.92 373.57 C760.52 291.9, 831.02 211.04, 886.11 150.18 M697.56 373.18 C740.94 318.25, 789.35 267.96, 886.51 155.82 M697.56 373.18 C751.68 309.56, 806.68 246.63, 886.51 155.82 M702.55 373.54 C759.5 310.49, 813.81 246.91, 886.25 162.22 M702.55 373.54 C766.97 299.65, 830.44 226.36, 886.25 162.22 M708.19 373.15 C759.51 311.63, 812.35 251.75, 886.64 167.86 M708.19 373.15 C749.47 325.89, 790.35 279.89, 886.64 167.86 M713.18 373.51 C780.5 296.41, 846.65 216.78, 886.38 174.26 M713.18 373.51 C770.78 306.05, 827.8 240.09, 886.38 174.26 M718.82 373.11 C755.44 331.43, 793.85 290.79, 886.12 180.66 M718.82 373.11 C758.33 328.06, 798.17 282.18, 886.12 180.66 M723.81 373.47 C759.32 331, 795.44 289.49, 886.51 186.3 M723.81 373.47 C789.47 299, 854.49 225.93, 886.51 186.3 M729.45 373.08 C777.29 317, 823.66 260.58, 886.25 192.7 M729.45 373.08 C770.13 327.38, 810.7 280.23, 886.25 192.7 M734.44 373.44 C765.98 336.41, 799.51 298.03, 886.65 198.34 M734.44 373.44 C786.24 315.31, 838.01 256.25, 886.65 198.34 M739.43 373.8 C790.1 314.06, 841.78 253.71, 886.38 204.74 M739.43 373.8 C783.23 325.18, 826.83 275.19, 886.38 204.74 M745.07 373.4 C801.86 308.95, 857.18 245.23, 886.12 211.14 M745.07 373.4 C781.96 328.24, 821.54 283.62, 886.12 211.14 M750.06 373.76 C788.09 327.62, 827.68 281.85, 886.52 216.78 M750.06 373.76 C796.71 318.27, 843.7 263.88, 886.52 216.78 M755.7 373.37 C786.93 336.5, 821.74 297.47, 886.26 223.18 M755.7 373.37 C787.85 336.74, 819.59 301.04, 886.26 223.18 M760.69 373.73 C809.59 316.63, 858.18 260.27, 886.65 228.82 M760.69 373.73 C790.01 339.04, 819.07 305.13, 886.65 228.82 M766.33 373.33 C798.56 334.5, 832.89 297.78, 886.39 235.22 M766.33 373.33 C791.12 342.08, 817.17 312.32, 886.39 235.22 M771.32 373.69 C796.91 347.39, 819.68 319.5, 886.13 241.62 M771.32 373.69 C794.54 345.46, 819.61 316.5, 886.13 241.62 M776.96 373.3 C816.91 324.07, 858.87 277.72, 886.52 247.26 M776.96 373.3 C807.95 338.29, 838.93 303.49, 886.52 247.26 M781.95 373.66 C811.28 337.24, 842.47 302.88, 886.26 253.66 M781.95 373.66 C818.65 331.7, 856.92 287.88, 886.26 253.66 M787.59 373.26 C819.88 333.54, 857.89 293.89, 886.66 259.3 M787.59 373.26 C811.19 348.13, 831.9 322.14, 886.66 259.3 M792.58 373.62 C820.51 343.17, 845.23 315.34, 886.39 265.7 M792.58 373.62 C824.75 335.53, 856.89 298.44, 886.39 265.7 M798.22 373.23 C828.94 339.42, 857.72 301.89, 886.13 272.1 M798.22 373.23 C831.98 333.77, 866.48 294.08, 886.13 272.1 M803.21 373.59 C830.95 339.67, 858.35 309.15, 886.53 277.74 M803.21 373.59 C829.71 344.41, 855.04 314.59, 886.53 277.74 M808.85 373.2 C838.13 340.57, 868.25 305.18, 886.27 284.14 M808.85 373.2 C826.74 352.12, 845.88 330.61, 886.27 284.14 M813.84 373.56 C841.37 344.3, 867.64 312.76, 886.66 289.78 M813.84 373.56 C841.1 340.82, 869.37 310.51, 886.66 289.78 M819.48 373.16 C841.2 352.6, 860.44 328.5, 886.4 296.18 M819.48 373.16 C840.57 348.24, 862.67 323.73, 886.4 296.18 M824.47 373.52 C847.9 345.87, 870.22 322.15, 886.14 302.58 M824.47 373.52 C844.54 351.52, 863.42 329.55, 886.14 302.58 M830.11 373.13 C849.58 347.71, 868.09 327.37, 886.53 308.22 M830.11 373.13 C848.01 350.3, 868.47 328.07, 886.53 308.22 M835.1 373.49 C850.67 351.41, 869.04 334.28, 886.27 314.62 M835.1 373.49 C849.44 358.38, 864.17 341.67, 886.27 314.62 M840.74 373.09 C852.4 360.44, 863.21 344.74, 886.67 320.26 M840.74 373.09 C855.16 355.06, 871.05 338.04, 886.67 320.26 M845.73 373.45 C860.65 357.68, 874.23 338.53, 886.4 326.66 M845.73 373.45 C857.37 358.96, 870.12 345.47, 886.4 326.66 M852.68 371.55 C863.02 360.8, 874.43 345.48, 886.14 333.06 M852.68 371.55 C866.02 355.82, 879.94 340.35, 886.14 333.06 M858.98 370.4 C866.2 364.09, 870.9 355.26, 885.23 340.21 M858.98 370.4 C869.88 358.73, 880.03 347.3, 885.23 340.21 M864.63 370 C871.12 363.55, 877.77 356.2, 884.31 347.36 M864.63 370 C869.16 364.04, 872.45 360.97, 884.31 347.36" stroke="#ffec99" stroke-width="0.5" fill="none"></path><path d="M32 0 M32 0 C267.89 3.05, 503.15 3.9, 852 0 M32 0 C196.45 -2.61, 361.4 -2.41, 852 0 M852 0 C871.58 1.14, 885.22 11.5, 884 32 M852 0 C874.47 -0.88, 883.39 12.48, 884 32 M884 32 C882.02 131.95, 882.56 230.13, 884 339 M884 32 C882.9 140.5, 882.13 250.6, 884 339 M884 339 C885.78 359.16, 872.24 372.74, 852 371 M884 339 C885.55 360.31, 871.22 370.22, 852 371 M852 371 C608.84 374.42, 365.31 373.89, 32 371 M852 371 C579.08 373.19, 306.68 373.04, 32 371 M32 371 C10.06 371.42, -0.97 359.82, 0 339 M32 371 C8.81 370.06, 1.75 360.29, 0 339 M0 339 C-0.74 222.07, 0.32 102.49, 0 32 M0 339 C1.69 255.52, 1.38 173.51, 0 32 M0 32 C1.71 11.13, 8.67 1.02, 32 0 M0 32 C1.06 10.17, 12.28 1.55, 32 0" stroke="#f08c00" stroke-width="1" fill="none"></path></g><g transform="translate(1988.6119791666656 589.717447916667) rotate(0 431.2395935058594 162.5)"><text x="0" y="0" font-family="Virgil, Segoe UI Emoji" font-size="20px" fill="#f08c00" text-anchor="start" style="white-space: pre;" direction="ltr" dominant-baseline="text-before-edge">From the following CSV content :</text><text x="0" y="25" font-family="Virgil, Segoe UI Emoji" font-size="20px" fill="#f08c00" text-anchor="start" style="white-space: pre;" direction="ltr" dominant-baseline="text-before-edge"></text><text x="0" y="50" font-family="Virgil, Segoe UI Emoji" font-size="20px" fill="#f08c00" text-anchor="start" style="white-space: pre;" direction="ltr" dominant-baseline="text-before-edge">- Translate the text in "Word List" column (in Luxembourgish) as a whole text, in "en" </text><text x="0" y="75" font-family="Virgil, Segoe UI Emoji" font-size="20px" fill="#f08c00" text-anchor="start" style="white-space: pre;" direction="ltr" dominant-baseline="text-before-edge">language, and make it more understandable. Use the entire text for context but put </text><text x="0" y="100" font-family="Virgil, Segoe UI Emoji" font-size="20px" fill="#f08c00" text-anchor="start" style="white-space: pre;" direction="ltr" dominant-baseline="text-before-edge">the translation of each sentence in the proper line</text><text x="0" y="125" font-family="Virgil, Segoe UI Emoji" font-size="20px" fill="#f08c00" text-anchor="start" style="white-space: pre;" direction="ltr" dominant-baseline="text-before-edge">- Convert time code in the Start and End columns into dubbing time code.</text><text x="0" y="150" font-family="Virgil, Segoe UI Emoji" font-size="20px" fill="#f08c00" text-anchor="start" style="white-space: pre;" direction="ltr" dominant-baseline="text-before-edge">- And finally generate a SRT content, by converting everything into srt file format</text><text x="0" y="175" font-family="Virgil, Segoe UI Emoji" font-size="20px" fill="#f08c00" text-anchor="start" style="white-space: pre;" direction="ltr" dominant-baseline="text-before-edge"></text><text x="0" y="200" font-family="Virgil, Segoe UI Emoji" font-size="20px" fill="#f08c00" text-anchor="start" style="white-space: pre;" direction="ltr" dominant-baseline="text-before-edge">CSV content: </text><text x="0" y="225" font-family="Virgil, Segoe UI Emoji" font-size="20px" fill="#f08c00" text-anchor="start" style="white-space: pre;" direction="ltr" dominant-baseline="text-before-edge"></text><text x="0" y="250" font-family="Virgil, Segoe UI Emoji" font-size="20px" fill="#f08c00" text-anchor="start" style="white-space: pre;" direction="ltr" dominant-baseline="text-before-edge">[CONTENT]</text><text x="0" y="275" font-family="Virgil, Segoe UI Emoji" font-size="20px" fill="#f08c00" text-anchor="start" style="white-space: pre;" direction="ltr" dominant-baseline="text-before-edge"></text><text x="0" y="300" font-family="Virgil, Segoe UI Emoji" font-size="20px" fill="#f08c00" text-anchor="start" style="white-space: pre;" direction="ltr" dominant-baseline="text-before-edge">SRT content:</text></g><g mask="url(#mask-LFtG1m0YlKBle0-ONDV4f)" stroke-linecap="round"><g transform="translate(565.557291666667 68.09114583333394) rotate(0 507.51841187177376 5.757101769993682)"><path d="M0.36 -1.1 C169.81 0.92, 846.8 10.25, 1015.95 12.62 M-0.91 0.93 C168.53 2.54, 846.23 8.99, 1015.49 10.69" stroke="#1e1e1e" stroke-width="1" fill="none"></path></g><g transform="translate(565.557291666667 68.09114583333394) rotate(0 507.51841187177376 5.757101769993682)"><path d="M985.37 22.24 C994.48 18.66, 1001.92 17.17, 1016.87 11.11 M987.46 20.83 C996.57 17.14, 1004.94 14.47, 1015.66 11.06" stroke="#1e1e1e" stroke-width="1" fill="none"></path></g><g transform="translate(565.557291666667 68.09114583333394) rotate(0 507.51841187177376 5.757101769993682)"><path d="M985.57 1.72 C994.72 2.99, 1002.12 6.35, 1016.87 11.11 M987.66 0.31 C996.82 3.21, 1005.12 7.13, 1015.66 11.06" stroke="#1e1e1e" stroke-width="1" fill="none"></path></g></g><mask id="mask-LFtG1m0YlKBle0-ONDV4f"><rect x="0" y="0" fill="#fff" width="1680.5703125000002" height="180.33072916666725"></rect><rect x="1047.4038289388022" y="61.71093750000057" fill="#000" width="51.3199462890625" height="25" opacity="1"></rect></mask><g transform="translate(1047.4038289388022 61.7109375000006) rotate(0 25.6718745996385 12.137310103327025)"><text x="25.65997314453125" y="0" font-family="Virgil, Segoe UI Emoji" font-size="20px" fill="#1e1e1e" text-anchor="middle" style="white-space: pre;" direction="ltr" dominant-baseline="text-before-edge">Audio</text></g><g mask="url(#mask-SRryDSDSR9X2LoImOd6g6)" stroke-linecap="round"><g transform="translate(555.5898437500002 90.9557291666672) rotate(0 215.58881147982862 361.7074745970467)"><path d="M-0.6 -0.87 C69.55 48.28, 370.55 175.11, 421.28 295.97 C472.02 416.83, 323.35 652.91, 303.82 724.28" stroke="#1971c2" stroke-width="1.5" fill="none" stroke-dasharray="8 9"></path></g><g transform="translate(555.5898437500002 90.9557291666672) rotate(0 215.58881147982862 361.7074745970467)"><path d="M304.11 693.56 C306.75 702.73, 306.25 713.21, 305.27 723.49" stroke="#1971c2" stroke-width="1.5" fill="none"></path></g><g transform="translate(555.5898437500002 90.9557291666672) rotate(0 215.58881147982862 361.7074745970467)"><path d="M322.95 701.68 C319.24 708.05, 312.44 715.82, 305.27 723.49" stroke="#1971c2" stroke-width="1.5" fill="none"></path></g></g><mask id="mask-SRryDSDSR9X2LoImOd6g6"><rect x="0" y="0" fill="#fff" width="1077.334635416667" height="914.2890625000003"></rect><rect x="951.6746622721357" y="373.5208333333338" fill="#000" width="51.3199462890625" height="25" opacity="1"></rect></mask><g transform="translate(951.6746622721355 373.5208333333338) rotate(0 -180.49600704230687 79.14237043038008)"><text x="25.65997314453125" y="0" font-family="Virgil, Segoe UI Emoji" font-size="20px" fill="#1971c2" text-anchor="middle" style="white-space: pre;" direction="ltr" dominant-baseline="text-before-edge">Audio</text></g></svg>